<svg width="115" height="114" viewBox="0 0 115 114" fill="none" xmlns="http://www.w3.org/2000/svg">
<path d="M60.5737 0C62.5474 0.274123 64.543 0.460526 66.4948 0.833333C86.8292 4.73684 101.297 16.1294 109.559 35.1042C118.923 56.6173 113.205 82.6919 95.9136 98.6075C86.8006 107.145 75.1315 112.447 62.7064 113.695C55.1591 114.49 47.529 113.727 40.2886 111.453C38.7097 110.97 37.9421 109.901 38.0408 108.427C38.0713 107.794 38.3247 107.192 38.7562 106.729C39.1877 106.265 39.7694 105.969 40.3983 105.894C40.9852 105.849 41.5752 105.918 42.1362 106.096C58.7042 110.735 74.0605 108.163 87.8763 97.9167C98.6713 89.9123 105.25 79.057 107.509 65.8004C110.163 50.2577 106.374 36.2555 96.3577 24.1338C88.6928 14.6458 77.7653 8.35713 65.7108 6.49671C49.1976 3.75548 34.4608 8.00987 22.2459 19.386C9.3895 31.3322 4.15374 46.3487 6.22062 63.7939C6.6348 66.5282 7.20964 69.2357 7.94212 71.9024C8.40265 73.8268 7.73927 75.4057 6.12194 75.8607C4.50462 76.3158 3.02985 75.4112 2.46515 73.5033C1.23961 69.4573 0.472741 65.2864 0.178977 61.0691C0.140429 60.7419 0.0799771 60.4177 -0.00195312 60.0987V53.8761C0.0638364 53.5526 0.13509 53.2292 0.184432 52.9057C0.562721 50.2686 0.803969 47.6042 1.33577 44.9945C5.85331 22.6425 24.6362 4.58333 47.1691 0.877193C49.2469 0.537281 51.3358 0.29057 53.4191 0H60.5737Z" fill="white"/>
<path d="M56.3136 17.4232C76.1163 17.3793 92.761 31.4364 95.9792 50.5427C99.5374 71.6721 85.7161 91.8969 64.8279 96.1293C61.5233 96.8425 58.1318 97.066 54.7621 96.7927C53.8582 96.6877 52.9997 96.339 52.2786 95.784C51.8424 95.3988 51.5465 94.8797 51.4373 94.3081C51.3282 93.7365 51.4119 93.1449 51.6755 92.6261C51.927 92.0976 52.341 91.6635 52.8569 91.3873C53.3728 91.1111 53.9636 91.0073 54.5428 91.091C60.1507 91.6479 65.803 90.6363 70.8696 88.1688C83.9124 81.7927 90.7928 71.2664 90.8257 56.7269C90.8586 39.9122 78.2161 25.7291 61.5329 23.41C57.0497 22.7908 52.4879 23.0706 48.1139 24.2332C43.74 25.3958 39.6413 27.4179 36.0572 30.1814C32.473 32.9449 29.4751 36.3946 27.2384 40.3291C25.0017 44.2636 23.5709 48.6042 23.0297 53.0975C22.8313 55.0887 22.7946 57.0927 22.92 59.0899C23.0132 61.08 22.0702 62.5109 20.2994 62.659C18.6546 62.796 17.3498 61.5625 17.2128 59.5997C16.8003 54.5888 17.439 49.547 19.0878 44.7971C24.488 29.7587 35.1075 20.8004 50.8093 17.8673C51.501 17.7514 52.1982 17.6709 52.8981 17.626C54.17 17.5274 55.4693 17.4671 56.3136 17.4232Z" fill="white"/>
<path d="M30.4202 74.1338C32.202 74.1338 34.1648 74.6107 35.6999 73.9967C37.2349 73.3827 38.2492 71.6996 39.4773 70.4715C44.4663 65.4898 49.448 60.5044 54.4225 55.5153C55.3161 54.6217 56.3029 54.0515 57.6023 54.4189C58.0514 54.5435 58.4622 54.7784 58.7973 55.1023C59.1325 55.4261 59.3814 55.8286 59.5214 56.2731C59.6614 56.7177 59.6881 57.1902 59.599 57.6476C59.5099 58.1051 59.3079 58.533 59.0113 58.8925C58.7261 59.2343 58.4203 59.5584 58.0957 59.8629C52.2952 65.6963 46.4765 71.5205 40.6396 77.3355C40.3437 77.6051 40.1123 77.9377 39.9624 78.3087C39.8124 78.6798 39.7478 79.0798 39.7733 79.4792C39.8227 82.2588 39.7733 85.0384 39.8007 87.8235C39.8195 88.378 39.7203 88.9302 39.5095 89.4434C39.2988 89.9566 38.9813 90.4192 38.5781 90.8004C33.1359 96.2135 27.7064 101.641 22.2898 107.083C21.281 108.103 20.168 108.596 18.7919 108.032C17.4158 107.467 17.054 106.332 17.0705 104.956C17.0979 102.659 17.0321 100.356 17.0979 98.0592C17.1308 97.0998 16.7963 96.875 15.8972 96.8969C13.6001 96.9518 11.2974 96.8969 9.00029 96.8969C7.61323 96.8969 6.48932 96.4967 5.95204 95.1425C5.41476 93.7884 5.88079 92.7083 6.86215 91.727C12.3446 86.2847 17.7978 80.8279 23.2218 75.3564C23.5903 74.9653 24.0384 74.6577 24.5359 74.4544C25.0333 74.251 25.5686 74.1567 26.1056 74.1776C27.5529 74.2105 29.0003 74.1776 30.4422 74.1776L30.4202 74.1338ZM15.3928 91.0088C15.531 91.0918 15.6737 91.1669 15.8205 91.2335C17.0431 91.2335 18.2656 91.2336 19.4937 91.261C21.6099 91.261 22.6955 92.3575 22.7064 94.4901C22.7064 95.7621 22.7064 97.0395 22.7064 98.3882C22.8334 98.3439 22.9549 98.285 23.0683 98.2127C26.61 94.6747 30.1516 91.1349 33.6933 87.5932C33.8803 87.4222 34.0024 87.1916 34.0387 86.9408C34.0661 84.6162 34.0387 82.2971 34.0387 79.9013C31.8457 79.9013 29.7459 79.8575 27.679 79.9342C27.0712 79.9615 26.4909 80.1955 26.0343 80.5976C23.2931 83.2292 20.6724 85.9375 17.986 88.5965C17.2624 89.4024 16.3632 90.1425 15.4148 91.0088H15.3928Z" fill="white"/>
<path d="M56.8347 34.4847C62.5085 34.4778 67.979 36.5972 72.1672 40.4249C76.3554 44.2526 78.9573 49.5108 79.4597 55.1623C79.9621 60.8139 78.3285 66.4486 74.8812 70.955C71.4338 75.4615 66.423 78.5126 60.8369 79.5066C59.6338 79.7178 58.4174 79.8442 57.1966 79.8849C55.3216 79.9452 54.0057 78.7555 53.9783 77.0998C53.9509 75.4441 55.1516 74.2599 57.0046 74.2161C59.5351 74.185 62.0269 73.591 64.2992 72.4772C66.5716 71.3634 68.5675 69.7578 70.1422 67.7768C71.717 65.7958 72.831 63.4891 73.4034 61.0241C73.9759 58.5591 73.9925 55.9975 73.452 53.5253C72.5605 49.4976 70.2371 45.9305 66.9137 43.4867C63.5902 41.0429 59.4927 39.8887 55.3823 40.2384C51.272 40.5881 47.4283 42.4181 44.5655 45.3882C41.7027 48.3583 40.0154 52.2667 39.8172 56.3871C39.713 58.7829 38.6384 60.0823 36.8292 60.0055C35.02 59.9288 33.9838 58.4869 34.088 56.0582C34.381 50.2282 36.9073 44.7349 41.1427 40.7179C45.3781 36.701 50.9974 34.4689 56.8347 34.4847Z" fill="white"/>
</svg>
