<svg width="130" height="115" viewBox="0 0 130 115" fill="none" xmlns="http://www.w3.org/2000/svg">
<path d="M127.902 54.6548C116.555 43.6031 104.888 35.4252 92.2307 29.5495C82.5971 25.1053 73.6593 22.9206 64.8927 22.8565C56.1262 22.7924 47.2312 24.897 37.512 29.2664C25.165 34.875 13.6797 42.8446 2.37093 53.5865C1.68684 54.2964 1.08538 55.0813 0.578014 55.9261C0.385342 56.2253 0.192671 56.519 0 56.8021V57.7529C0.101688 57.9346 0.208727 58.1269 0.294358 58.2871C0.526468 58.7838 0.821449 59.2488 1.17208 59.6706C13.6101 71.7906 26.3264 80.5027 40.0863 86.2235C48.4729 89.7489 56.3403 91.4849 64.1435 91.565H64.6465C71.663 91.565 78.6955 90.1922 86.124 87.3879C100.805 81.838 114.532 72.736 128.094 59.6118C128.42 59.317 128.682 58.9598 128.866 58.5615C129.05 58.1632 129.151 57.7319 129.165 57.2936C129.143 56.7916 129.019 56.2992 128.802 55.8459C128.585 55.3925 128.279 54.9874 127.902 54.6548ZM33.0699 71.4647L35.2107 76.6567L30.3457 73.8684C22.9058 69.5365 15.939 64.4415 9.55863 58.6663L7.95304 57.2402L9.55863 55.7979C15.9358 50.008 22.9028 44.9003 30.3457 40.5585L35.2107 37.7648L33.0699 42.9622C31.1279 47.4634 30.1262 52.3127 30.1262 57.2134C30.1262 62.1142 31.1279 66.9635 33.0699 71.4647ZM64.5663 85.0804C57.2316 84.979 50.2317 81.9998 45.0808 76.7873C39.93 71.5748 37.0422 64.5479 37.0422 57.2268C37.0422 49.9057 39.93 42.8788 45.0808 37.6663C50.2317 32.4538 57.2316 29.4746 64.5663 29.3732C71.9758 29.3874 79.0764 32.3375 84.3072 37.5752C89.5379 42.8128 92.4707 49.9092 92.4608 57.3043C92.4325 64.6734 89.4825 71.7316 84.2556 76.9364C79.0286 82.1412 71.9498 85.0691 64.5663 85.0804ZM119.542 58.6931C113.079 64.5297 106.058 69.7181 98.5781 74.1836L93.4777 77.2443L95.8111 71.7799C100.007 61.9888 100.023 52.5503 95.886 42.85L93.8791 38.1815L98.4764 40.3555C102.993 42.4921 115.244 51.4873 119.622 55.9101L121.051 57.347L119.542 58.6931Z" fill="#01253D"/>
<path d="M67.8149 10.2611C67.8149 11.276 67.8149 12.2909 67.8149 13.3165C67.8149 15.3997 66.4662 16.8526 64.5555 16.8526C62.6449 16.8526 61.3122 15.3997 61.3015 13.3165C61.3015 12.2482 61.3015 11.2386 61.3015 10.2077C61.3015 8.27941 61.339 6.28701 61.2641 4.332C61.1624 2.0191 61.9224 0.742477 63.8544 0H65.2566C67.1994 0.742477 67.9326 2.05649 67.8416 4.44417C67.7774 6.39918 67.7988 8.36488 67.8149 10.2611Z" fill="#01253D"/>
<path d="M31.111 24.411C30.8809 26.4407 30.1476 27.1565 29.1415 27.6159C27.857 28.15 26.7598 28.0432 25.8821 27.2206C22.885 24.4056 20.2839 21.8096 17.9237 19.2617C17.4062 18.6596 17.1441 17.8798 17.1931 17.088C17.242 16.2962 17.5982 15.5546 18.186 15.0205C18.8015 14.3877 19.6413 14.0213 20.5248 14.0003C21.234 13.9978 21.9189 14.2586 22.4461 14.7321C25.1649 17.2372 27.8302 19.9134 30.3671 22.6749C30.6706 23.1108 30.8885 23.6002 31.0093 24.1172C31.0468 24.2293 31.0735 24.3201 31.111 24.411Z" fill="#01253D"/>
<path d="M111.214 19.2403C108.715 21.9538 106.033 24.6139 103.256 27.1565C102.816 27.4547 102.326 27.6734 101.811 27.8028L101.516 27.9043C99.4932 27.6586 98.7707 26.9428 98.3051 25.9386C97.7699 24.6139 97.893 23.5242 98.7814 22.5841C101.457 19.7424 104.01 17.1998 106.574 14.8068C107.127 14.2837 107.862 13.9946 108.624 14.0002C109.501 14.0167 110.336 14.3752 110.952 14.9991C111.54 15.5331 111.896 16.2748 111.945 17.0666C111.994 17.8584 111.732 18.6381 111.214 19.2403Z" fill="#01253D"/>
<path d="M74.2158 47.6147C72.6311 46.0397 70.6825 44.8782 68.5417 44.2327C66.4009 43.5872 64.1338 43.4774 61.9405 43.9132C59.7472 44.3489 57.695 45.3168 55.9651 46.7313C54.2352 48.1459 52.8808 49.9636 52.0212 52.0242C51.1617 54.0847 50.8235 56.3248 51.0366 58.5466C51.2496 60.7685 52.0073 62.9038 53.2428 64.7643C54.4783 66.6248 56.1536 68.1531 58.1209 69.2146C60.0882 70.276 62.287 70.8378 64.5233 70.8505C66.3209 70.8737 68.1047 70.5341 69.7675 69.8521C71.4303 69.1701 72.9379 68.1597 74.1997 66.8817C75.469 65.6214 76.4763 64.1232 77.1636 62.4732C77.8509 60.8232 78.2047 59.0538 78.2047 57.2669C78.2047 55.48 77.8509 53.7106 77.1636 52.0606C76.4763 50.4106 75.469 48.9124 74.1997 47.6521L74.2158 47.6147ZM69.5007 62.3414C68.1739 63.621 66.4005 64.3355 64.5555 64.3338H64.427C62.57 64.2669 60.8126 63.4785 59.5299 62.1367C58.2471 60.7948 57.5404 59.0058 57.5607 57.1513C57.5809 55.2968 58.3265 53.5236 59.6382 52.21C60.95 50.8964 62.7242 50.1463 64.5822 50.1199H64.7107C66.5954 50.1633 68.386 50.9507 69.6901 52.3093C70.9942 53.668 71.7056 55.4872 71.6682 57.3684C71.6552 58.2993 71.4568 59.2184 71.0847 60.0721C70.7126 60.9258 70.1742 61.6972 69.5007 62.3414Z" fill="#01253D"/>
<path d="M61.3231 104.567C61.3231 103.552 61.3231 102.537 61.3231 101.512C61.3231 99.4285 62.6718 97.9756 64.5824 97.9756C66.4931 97.9756 67.8257 99.4285 67.8364 101.512C67.8364 102.58 67.8364 103.59 67.8364 104.621C67.8364 106.549 67.7989 108.541 67.8739 110.496C67.9756 112.809 67.2156 114.086 65.2835 114.828L63.8813 114.828C61.9385 114.086 61.2053 112.772 61.2963 110.384C61.3605 108.429 61.3391 106.463 61.3231 104.567Z" fill="#01253D"/>
<path d="M98.0269 90.4173C98.2571 88.3875 98.9903 87.6717 99.9965 87.2124C101.281 86.6782 102.378 86.785 103.256 87.6076C106.253 90.4226 108.854 93.0186 111.214 95.5665C111.732 96.1687 111.994 96.9484 111.945 97.7402C111.896 98.532 111.54 99.2737 110.952 99.8077C110.336 100.441 109.497 100.807 108.613 100.828C107.904 100.83 107.219 100.57 106.692 100.096C103.973 97.591 101.308 94.9149 98.7709 92.1533C98.4674 91.7174 98.2494 91.228 98.1286 90.7111C98.0912 90.5989 98.0644 90.5081 98.0269 90.4173Z" fill="#01253D"/>
<path d="M17.9239 95.588C20.4233 92.8745 23.1046 90.2144 25.8823 87.6718C26.3223 87.3736 26.8114 87.1548 27.3273 87.0255L27.6217 86.924C29.6447 87.1697 30.3672 87.8854 30.8329 88.8897C31.3681 90.2144 31.245 91.304 30.3565 92.2442C27.6805 95.0859 25.1276 97.6284 22.564 100.021C22.0109 100.545 21.2763 100.834 20.5142 100.828C19.6372 100.812 18.8015 100.453 18.1861 99.8292C17.5983 99.2951 17.2422 98.5535 17.1932 97.7617C17.1443 96.9698 17.4064 96.1901 17.9239 95.588Z" fill="#01253D"/>
</svg>
