<svg width="116" height="32" viewBox="0 0 116 32" fill="none" xmlns="http://www.w3.org/2000/svg">
<path d="M19.1477 5.06912H8.29938L21.4265 16.5031L17.8985 20.2656L5.26096 9.24911V18.4494H0V0H19.1477V5.06912Z" fill="#EB143E"/>
<path d="M73.0627 0H68.3531V18.2976H73.0627V0Z" fill="white"/>
<path d="M44.1696 0V18.2976H39.4544V4.53781H28.1335V18.2976H23.4239V0H44.1696Z" fill="white"/>
<path d="M111.29 0H95.2544V18.2976H116V0H111.29ZM99.9583 13.7598V4.54323H111.29V13.7598H99.9583Z" fill="white"/>
<path d="M80.2255 4.53781V13.7598H92.7955V18.2976H75.5103V0H92.7955V4.53781H80.2255Z" fill="white"/>
<path d="M51.4224 4.53781V8.09433H65.793V12.6321H51.4224V18.2976H46.7129V0H65.793V4.53781H51.4224Z" fill="white"/>
<path d="M7.59599 26.7824C7.59599 27.0101 7.59599 27.1998 7.59599 27.3625C7.61307 27.8169 7.53332 28.27 7.36166 28.6936C7.19001 29.1172 6.93008 29.5025 6.59792 29.8256C6.26576 30.1487 5.86842 30.4028 5.4304 30.5722C4.99239 30.7416 4.52299 30.8227 4.05117 30.8106C3.09014 30.8106 2.16846 30.4427 1.48891 29.7879C0.809351 29.1332 0.427582 28.2451 0.427582 27.3191C0.427582 26.3931 0.809351 25.505 1.48891 24.8503C2.16846 24.1955 3.09014 23.8276 4.05117 23.8276C5.51412 23.8276 6.86452 24.5053 7.37655 25.8607L6.11055 26.2836C5.9255 25.9128 5.63059 25.6032 5.26307 25.3938C4.89555 25.1845 4.47188 25.0847 4.04555 25.1071C3.74712 25.1071 3.45167 25.1642 3.17638 25.2752C2.90109 25.3863 2.65146 25.5489 2.44202 25.7537C2.23258 25.9586 2.06751 26.2015 1.9564 26.4684C1.8453 26.7352 1.79039 27.0207 1.79487 27.3083C1.78493 27.6017 1.83693 27.894 1.9477 28.1675C2.05848 28.4409 2.22574 28.6899 2.43933 28.8993C2.65293 29.1086 2.90842 29.274 3.19032 29.3854C3.47222 29.4968 3.77466 29.5519 4.07931 29.5473C4.56679 29.5821 5.051 29.4468 5.44354 29.1661C5.83607 28.8854 6.11076 28.4781 6.21745 28.0185H3.78672V26.7607L7.59599 26.7824Z" fill="white"/>
<path d="M13.6897 30.7292L8.42313 30.6967L8.46251 24.012L13.7122 24.0445V25.2698H9.87482V26.7769H13.414V27.9805H9.87482V29.4931H13.7347L13.6897 30.7292Z" fill="white"/>
<path d="M21.0945 30.7562H19.9129L16.098 26.419V30.7074H14.6913L14.7307 24.0227H15.9123L19.7272 28.4521V24.0444H21.1339L21.0945 30.7562Z" fill="white"/>
<path d="M27.492 30.7944L22.2198 30.7618L22.2648 24.0825L27.5145 24.1096V25.3403H23.6771V26.8421H27.2163V28.0511H23.6771V29.5691H27.5371L27.492 30.7944Z" fill="white"/>
<path d="M32.8994 30.8267L30.6487 28.3599H29.9116V30.8105H28.4655L28.5049 24.1257H31.8303C33.3214 24.1257 34.3117 24.9878 34.3004 26.251C34.3059 26.7775 34.102 27.286 33.7305 27.6722C33.3591 28.0583 32.8482 28.2928 32.303 28.3274L34.6155 30.8213L32.8994 30.8267ZM31.8134 27.1401C31.9467 27.1602 32.0829 27.1523 32.2127 27.1168C32.3424 27.0814 32.4627 27.0193 32.5652 26.9348C32.6677 26.8503 32.75 26.7455 32.8064 26.6274C32.8628 26.5094 32.892 26.3809 32.892 26.251C32.892 26.121 32.8628 25.9926 32.8064 25.8745C32.75 25.7565 32.6677 25.6516 32.5652 25.5671C32.4627 25.4826 32.3424 25.4205 32.2127 25.3851C32.0829 25.3497 31.9467 25.3417 31.8134 25.3618H29.8947V27.1401H31.8134Z" fill="white"/>
<path d="M40.5066 30.8648L39.9439 29.4389H36.8774L36.2584 30.8593H34.7392L37.7833 24.1963H39.0943L42.0596 30.8973L40.5066 30.8648ZM38.4078 25.8173L37.3781 28.1974H39.3925L38.4078 25.8173Z" fill="white"/>
<path d="M47.4219 30.9081L42.431 30.8756L42.476 24.2234H43.8827L43.8489 29.6449H47.4331L47.4219 30.9081Z" fill="white"/>
<path d="M53.6674 25.4866L53.6337 30.9406H52.2101L52.2439 25.4812H49.937V24.2234L55.9631 24.2613V25.4866H53.6674Z" fill="white"/>
<path d="M60.9878 30.9839L58.7371 28.5171H58V30.9731H56.5877L56.6328 24.2883H59.9525C61.4436 24.2883 62.4339 25.1504 62.4283 26.4136C62.4323 26.9406 62.2271 27.4491 61.8547 27.8351C61.4824 28.2212 60.9709 28.4554 60.4251 28.49L62.7377 30.9839H60.9878ZM59.9019 27.2973C60.5546 27.2973 60.9934 26.9449 60.9934 26.4136C60.9934 25.8823 60.5658 25.5244 59.9131 25.519H58V27.2973H59.9019Z" fill="white"/>
<path d="M68.5951 31.0272L68.0043 29.5959H64.9433L64.3244 31.0164H62.7996L65.8436 24.3479H67.1603L70.1199 31.0489L68.5951 31.0272ZM66.4963 25.9744L65.4666 28.3544H67.4866L66.4963 25.9744Z" fill="white"/>
<path d="M73.1246 24.3643C75.4091 24.3643 76.9226 25.7359 76.9114 27.731C76.9001 29.7261 75.3697 31.0653 73.0796 31.049H70.5251L70.5645 24.3643H73.1246ZM73.0909 29.8237C74.5257 29.8237 75.4878 29.0159 75.4935 27.7202C75.4991 26.4244 74.5538 25.6004 73.1134 25.5949H71.988L71.9599 29.8237H73.0909Z" fill="white"/>
<path d="M77.7103 31.0763L77.7497 24.3916H79.1564L79.117 31.0709L77.7103 31.0763Z" fill="white"/>
<path d="M86.6736 31.1251H85.4977L81.6828 26.7879V31.0763H80.2761L80.3155 24.3916H81.4689L85.2839 28.821V24.4133H86.6961L86.6736 31.1251Z" fill="white"/>
<path d="M94.6916 27.2701C94.6916 27.5032 94.7197 27.6876 94.7197 27.8502C94.7376 28.3047 94.6586 28.7578 94.4876 29.1817C94.3166 29.6056 94.0573 29.9913 93.7257 30.3149C93.3941 30.6385 92.9971 30.8932 92.5594 31.0632C92.1216 31.2333 91.6524 31.3152 91.1805 31.3037C90.7047 31.3037 90.2335 31.2134 89.7938 31.0379C89.3542 30.8625 88.9548 30.6053 88.6183 30.2811C88.2818 29.9569 88.0149 29.572 87.8328 29.1484C87.6507 28.7248 87.5569 28.2708 87.5569 27.8123C87.5569 27.3538 87.6507 26.8997 87.8328 26.4761C88.0149 26.0525 88.2818 25.6676 88.6183 25.3434C88.9548 25.0192 89.3542 24.762 89.7938 24.5866C90.2335 24.4111 90.7047 24.3208 91.1805 24.3208C92.6378 24.3208 93.9939 24.9931 94.5003 26.3539L93.2343 26.7767C93.0516 26.405 92.7582 26.094 92.3915 25.8835C92.0247 25.673 91.6012 25.5725 91.1749 25.5949C90.8765 25.5948 90.581 25.652 90.3057 25.763C90.0305 25.874 89.7808 26.0367 89.5714 26.2415C89.3619 26.4463 89.1969 26.6892 89.0858 26.9561C88.9747 27.223 88.9198 27.5085 88.9242 27.796C88.9143 28.0894 88.9663 28.3817 89.0771 28.6552C89.1878 28.9287 89.3551 29.1777 89.5687 29.387C89.7823 29.5964 90.0378 29.7618 90.3197 29.8732C90.6016 29.9846 90.904 30.0396 91.2087 30.0351C91.6892 30.0578 92.1627 29.9164 92.5456 29.6357C92.9286 29.355 93.1963 28.9531 93.3018 28.5008H90.8711V27.2484L94.6916 27.2701Z" fill="white"/>
<path d="M102.704 31.2172L97.7133 31.1901L97.7527 24.5054H99.165L99.1312 29.9648H102.71L102.704 31.2172Z" fill="white"/>
<path d="M108.511 31.2714H103.52L103.565 24.5867H104.972L104.938 30.0461H108.522L108.511 31.2714Z" fill="white"/>
<path d="M114.526 28.4902L115.888 28.7667C115.75 29.5366 115.325 30.2314 114.693 30.7206C114.061 31.2098 113.265 31.4597 112.455 31.4233C111.494 31.4175 110.575 31.0441 109.9 30.3853C109.224 29.7265 108.848 28.8361 108.854 27.9101C108.86 26.9841 109.248 26.0983 109.931 25.4476C110.615 24.7969 111.539 24.4346 112.5 24.4403C113.29 24.4181 114.063 24.6661 114.681 25.1406C115.299 25.615 115.722 26.285 115.876 27.0318L114.509 27.3951C114.445 26.9209 114.201 26.4865 113.823 26.176C113.446 25.8655 112.963 25.701 112.466 25.7144C111.875 25.7426 111.318 25.9888 110.909 26.402C110.501 26.8153 110.273 27.364 110.273 27.9345C110.273 28.505 110.501 29.0537 110.909 29.467C111.318 29.8803 111.875 30.1265 112.466 30.1546C112.963 30.1738 113.449 30.0139 113.83 29.7061C114.211 29.3983 114.459 28.9648 114.526 28.4902Z" fill="white"/>
</svg>
