<svg width="117" height="65" viewBox="0 0 117 65" fill="none" xmlns="http://www.w3.org/2000/svg">
<mask id="mask0_3621_3436" style="mask-type:luminance" maskUnits="userSpaceOnUse" x="0" y="0" width="117" height="65">
<path d="M116.766 0.419678H0V64.9209H116.766V0.419678Z" fill="white"/>
</mask>
<g mask="url(#mask0_3621_3436)">
<path d="M0 64.5575H2.63021V59.3301C2.53336 58.3853 2.69448 57.4317 3.09613 56.5725C3.29483 56.2765 3.56083 56.0327 3.87194 55.8614C4.18305 55.6901 4.53027 55.5962 4.88467 55.5876C7.09404 55.5876 7.09404 58.2089 7.09404 59.118V64.5575H9.70922V58.6028C9.82328 57.2271 9.46802 55.8533 8.70223 54.7088C8.28884 54.2426 7.78449 53.8675 7.22072 53.6068C6.65695 53.346 6.04588 53.2054 5.42574 53.1936C4.86034 53.1934 4.30108 53.3118 3.78356 53.5413C3.26604 53.7709 2.80159 54.1066 2.41979 54.527V53.5724H0V64.5878" fill="#E21836"/>
<path d="M25.761 64.5571H27.3692L29.3982 57.4206L31.4422 64.5571H33.0655L37.0634 53.5417H34.343L32.4041 60.2691L30.6306 53.5417H28.4363L26.6478 60.2691L24.6638 53.5417H21.8833L25.761 64.5571Z" fill="#E21836"/>
<path fill-rule="evenodd" clip-rule="evenodd" d="M41.5573 64.5576H43.962V63.2242C44.3956 63.7843 44.9565 64.231 45.5975 64.5264C46.2384 64.8218 46.9405 64.9572 47.6443 64.9212C49.1186 64.8145 50.4981 64.1487 51.5051 63.0579C52.5121 61.9672 53.0719 60.5324 53.0719 59.0423C53.0719 57.5522 52.5121 56.1174 51.5051 55.0267C50.4981 53.9359 49.1186 53.2702 47.6443 53.1634C46.3733 53.1624 45.151 53.6564 44.2326 54.5422V49.8755H41.5573V64.5576ZM44.0222 58.906C44.0182 58.4729 44.0991 58.0433 44.2603 57.6419C44.4215 57.2405 44.6598 56.8751 44.9614 56.5668C45.2631 56.2584 45.6222 56.0132 46.0181 55.8452C46.414 55.6772 46.839 55.5897 47.2686 55.5877C47.7041 55.5931 48.134 55.6875 48.5323 55.8654C48.9305 56.0432 49.2887 56.3008 49.5853 56.6224C49.8818 56.944 50.1105 57.323 50.2574 57.7364C50.4043 58.1498 50.4664 58.5889 50.4399 59.0272C50.4749 59.4663 50.42 59.9081 50.2785 60.325C50.137 60.7418 49.9119 61.1249 49.6173 61.4503C49.3227 61.7757 48.9648 62.0366 48.5659 62.2167C48.167 62.3967 47.7357 62.4921 47.2986 62.4969C46.844 62.494 46.3948 62.397 45.9788 62.2119C45.5629 62.0268 45.189 61.7576 44.8805 61.421C44.5719 61.0843 44.3352 60.6874 44.1849 60.2548C44.0347 59.8222 43.9742 59.3631 44.0071 58.906M65.2742 53.5422H62.8695V54.9362C62.4349 54.3872 61.8841 53.9432 61.2574 53.6365C60.6307 53.3297 59.9439 53.1681 59.2473 53.1634C58.5053 53.1708 57.7725 53.3287 57.0923 53.6275C56.4121 53.9264 55.7985 54.3602 55.2881 54.9031C54.7776 55.4459 54.3807 56.0868 54.121 56.7875C53.8614 57.4882 53.7442 58.2344 53.7765 58.9817C53.6483 60.0973 53.8738 61.2252 54.4206 62.2037C54.9674 63.1822 55.8074 63.9611 56.8202 64.4287C57.8331 64.8964 58.9668 65.0287 60.0589 64.8069C61.1509 64.5851 62.1453 64.0205 62.8995 63.1939V64.5576H65.3043L65.2742 53.5422ZM62.7943 59.0272C62.8274 59.4696 62.7696 59.9143 62.6245 60.3332C62.4795 60.7521 62.2503 61.1364 61.9512 61.462C61.6522 61.7877 61.2898 62.0476 60.8866 62.2257C60.4834 62.4038 60.0482 62.4961 59.608 62.4969C58.7442 62.4653 57.9278 62.0908 57.3366 61.4551C56.7455 60.8194 56.4274 59.9739 56.4518 59.1029C56.4296 58.6557 56.4965 58.2085 56.6488 57.7878C56.801 57.3671 57.0355 56.9815 57.3381 56.6537C57.6408 56.326 58.0056 56.0628 58.411 55.8797C58.8164 55.6966 59.2541 55.5973 59.6982 55.5877C60.1363 55.5866 60.5699 55.6766 60.9719 55.852C61.374 56.0275 61.7358 56.2846 62.0349 56.6074C62.3339 56.9302 62.5637 57.3117 62.7099 57.728C62.856 58.1444 62.9155 58.5866 62.8845 59.0272" fill="#E21836"/>
<path d="M69.3022 49.8755H66.687V64.5576H69.3022V49.8755Z" fill="#E21836"/>
<path fill-rule="evenodd" clip-rule="evenodd" d="M81.6266 53.5421H79.2218V54.9361C78.7872 54.3871 78.2365 53.9431 77.6098 53.6364C76.9831 53.3296 76.2963 53.168 75.5996 53.1633C74.1228 53.2493 72.7332 53.8964 71.7109 54.9742C70.6886 56.052 70.1096 57.4805 70.0905 58.9716C70.0715 60.4628 70.6138 61.9058 71.6082 63.0098C72.6026 64.1139 73.9752 64.7969 75.4493 64.9211C76.1671 64.9007 76.8738 64.7375 77.5289 64.4411C78.184 64.1447 78.7746 63.7208 79.2669 63.1938V64.5575H81.6716L81.6266 53.5421ZM79.1467 59.0271C79.1773 59.4665 79.1189 59.9077 78.9748 60.3237C78.8307 60.7396 78.6041 61.1216 78.3088 61.4463C78.0134 61.771 77.6555 62.0316 77.2569 62.2122C76.8583 62.3929 76.4274 62.4897 75.9904 62.4968C75.555 62.493 75.1247 62.4016 74.7247 62.2282C74.3246 62.0547 73.9629 61.8026 73.6607 61.4866C73.3584 61.1706 73.1217 60.7971 72.9643 60.3878C72.8069 59.9785 72.732 59.5416 72.744 59.1028C72.7218 58.6556 72.7888 58.2084 72.941 57.7877C73.0933 57.367 73.3277 56.9814 73.6304 56.6536C73.933 56.3259 74.2979 56.0627 74.7032 55.8796C75.1086 55.6965 75.5463 55.5972 75.9904 55.5876C76.4291 55.5867 76.8633 55.6766 77.2661 55.8519C77.6689 56.0272 78.0317 56.2841 78.3319 56.6066C78.632 56.9291 78.8633 57.3104 79.0112 57.7268C79.1591 58.1431 79.2206 58.5857 79.1917 59.0271" fill="#E21836"/>
<path d="M83.0093 64.5575H85.6245V59.3302C85.5244 58.3836 85.6911 57.4278 86.1055 56.5725C86.3042 56.2766 86.5702 56.0328 86.8813 55.8614C87.1924 55.6901 87.5396 55.5963 87.894 55.5877C90.1034 55.5877 90.1034 58.2089 90.1034 59.118V64.5575H92.7185V58.6029C92.8326 57.2271 92.4773 55.8533 91.7115 54.7088C91.2964 54.2408 90.7897 53.8646 90.2232 53.6038C89.6567 53.343 89.0427 53.2034 88.42 53.1936C87.8549 53.1952 87.2962 53.3145 86.779 53.5439C86.2617 53.7734 85.797 54.1081 85.4141 54.527V53.5724H82.9943V64.5878M101.992 60.9968C101.764 61.4447 101.42 61.822 100.997 62.0888C100.573 62.3556 100.086 62.5018 99.5871 62.512C99.142 62.5167 98.7007 62.4295 98.2903 62.2558C97.8799 62.0821 97.5091 61.8255 97.2007 61.5019C96.8924 61.1783 96.653 60.7945 96.4973 60.3741C96.3417 59.9537 96.273 59.5055 96.2956 59.0574C96.2626 58.6169 96.32 58.1743 96.4643 57.7572C96.6086 57.3401 96.8367 56.9574 97.1343 56.6332C97.4319 56.309 97.7927 56.0502 98.194 55.8729C98.5954 55.6956 99.0287 55.6036 99.4669 55.6028C99.9981 55.5892 100.521 55.7345 100.971 56.0203C101.42 56.3062 101.775 56.7197 101.992 57.2089H104.998C104.629 56.0352 103.898 55.011 102.911 54.2859C101.924 53.5608 100.733 53.1728 99.512 53.1785C97.9654 53.1785 96.4821 53.7979 95.3885 54.9004C94.2948 56.0029 93.6805 57.4982 93.6805 59.0574C93.6805 60.6166 94.2948 62.1119 95.3885 63.2144C96.4821 64.3169 97.9654 64.9363 99.512 64.9363C100.724 64.9558 101.91 64.5819 102.895 63.8698C103.88 63.1577 104.612 62.1452 104.983 60.9817H101.977" fill="#E21836"/>
<path fill-rule="evenodd" clip-rule="evenodd" d="M116.571 60.2389C116.667 59.8009 116.717 59.3541 116.721 58.9056C116.725 57.385 116.134 55.9241 115.076 54.8404C114.018 53.7566 112.578 53.1376 111.07 53.1176C110.303 53.1275 109.547 53.29 108.843 53.5957C108.139 53.9014 107.502 54.3444 106.968 54.8992C106.435 55.454 106.015 56.1096 105.734 56.8284C105.452 57.5471 105.315 58.3149 105.328 59.0874C105.323 59.8539 105.468 60.6139 105.755 61.3234C106.043 62.0329 106.468 62.6777 107.005 63.2204C107.542 63.7631 108.18 64.1928 108.883 64.4848C109.586 64.7767 110.34 64.9249 111.1 64.9209C112.261 64.9043 113.389 64.5274 114.331 63.8415C115.272 63.1556 115.981 62.1939 116.36 61.0874H113.61C113.366 61.5374 113.001 61.9087 112.557 62.1581C112.113 62.4075 111.608 62.5248 111.1 62.4966C110.424 62.4984 109.766 62.2793 109.224 61.8723C108.682 61.4653 108.286 60.8922 108.094 60.2389H116.571ZM108.004 58.1177C108.143 57.3914 108.527 56.7363 109.092 56.2638C109.657 55.7914 110.366 55.5309 111.1 55.5268C111.827 55.519 112.532 55.7773 113.085 56.2537C113.638 56.7301 114 57.3923 114.106 58.1177H108.094M21.718 60.2389C21.8138 59.8009 21.8642 59.3541 21.8683 58.9056C21.8724 57.385 21.2811 55.9241 20.223 54.8404C19.1649 53.7566 17.7254 53.1376 16.2171 53.1176C15.4507 53.1275 14.6937 53.29 13.9898 53.5957C13.2859 53.9014 12.6488 54.3444 12.1153 54.8992C11.5818 55.454 11.1622 56.1096 10.8809 56.8284C10.5995 57.5471 10.4618 58.3149 10.4757 59.0874C10.4698 59.8526 10.6144 60.6114 10.9012 61.3199C11.188 62.0284 11.6113 62.6725 12.1466 63.215C12.6819 63.7575 13.3186 64.1876 14.0199 64.4804C14.7212 64.7732 15.4731 64.9229 16.2321 64.9209C17.396 64.9074 18.5274 64.5319 19.4716 63.8458C20.4158 63.1596 21.1269 62.1963 21.5076 61.0874H18.712C18.4685 61.5374 18.1035 61.9087 17.6593 62.1581C17.215 62.4075 16.7098 62.5248 16.2021 62.4966C15.5263 62.4984 14.8681 62.2793 14.3262 61.8723C13.7843 61.4653 13.3878 60.8922 13.1961 60.2389H21.718ZM13.151 58.1177C13.2896 57.394 13.672 56.7407 14.2335 56.2686C14.7949 55.7964 15.501 55.5344 16.2321 55.5268C16.9593 55.519 17.6646 55.7773 18.2173 56.2537C18.77 56.7301 19.1327 57.3923 19.2381 58.1177H13.2262M44.6684 28.0565L41.1815 34.1173L21.8082 33.0263L23.747 29.6323L44.6684 28.0565ZM58.6611 8.64709L60.4196 15.3745L32.9452 13.5563L34.8841 10.1623L58.6611 8.64709ZM40.4601 0.419678H56.4517L57.6541 4.96522L38.416 3.81367L40.4601 0.419678ZM39.0473 37.9355L36.2518 42.769H16.2472L18.186 39.3749L39.0473 37.9355ZM74.0516 24.9353L69.197 33.4051H73.8111C75.9453 33.4051 79.823 32.3294 80.9653 29.2535C82.0474 26.405 80.0484 24.9353 78.6507 24.9353H74.0516ZM78.6657 16.8442H82.6787C84.0045 16.9234 85.3246 16.6117 86.4776 15.9471C87.6306 15.2825 88.5667 14.2938 89.1715 13.1017C90.1184 10.7683 88.8559 8.79862 87.1726 8.79862H83.2798L78.6657 16.8442ZM60.4497 15.4351L64.5227 8.2683L78.2599 7.37435L78.7409 6.52585L66.0257 5.61673L69.0317 0.419678H92.5231C99.7825 0.419678 105.148 3.02577 103.044 10.7229C102.413 13.0411 99.4669 18.9049 90.8248 21.3291C91.6928 21.4418 92.5295 21.7291 93.2854 22.1738C94.0413 22.6186 94.7009 23.2118 95.2251 23.9183C95.7493 24.6248 96.1274 25.4303 96.3372 26.2869C96.5469 27.1435 96.5839 28.0338 96.4459 28.905C95.0331 38.284 82.9191 42.7538 76.276 42.7538H48.516L47.1483 37.3294L61.7272 36.284L62.2232 35.4355L46.3968 34.4657L44.6985 28.0262L67.2431 26.6929L67.7241 25.8444L27.294 23.2686L29.2329 19.8897L72.744 17.026L73.24 16.1775L60.4797 15.3442" fill="#E21836"/>
</g>
</svg>
