<svg width="95" height="49" viewBox="0 0 95 49" fill="none" xmlns="http://www.w3.org/2000/svg">
<path d="M82.44 11.9396C73.7829 9.77026 64.9122 8.56626 55.99 8.34961C56.99 8.70961 57.93 9.06961 58.89 9.44961C68.7823 13.2897 77.8261 19.0312 85.51 26.3496C88.6366 29.2974 91.5069 32.5056 94.09 35.9396C94.27 36.1696 94.36 36.3196 94.14 36.5996L85.27 48.0396C85.21 48.1196 85.14 48.1896 85.03 48.3096C75.1574 35.4008 62.2294 25.1499 47.41 18.4796C32.6291 11.7882 16.4928 8.63142 0.280029 9.25961L1.67003 8.31961L10.09 2.8096C10.2956 2.68065 10.5225 2.58924 10.76 2.53961C17.5497 1.12399 24.4484 0.294265 31.38 0.0595981C38.0362 -0.147877 44.6981 0.18656 51.3 1.0596C59.7842 2.16326 68.1254 4.17479 76.18 7.0596C76.4099 7.13871 76.6258 7.25344 76.82 7.39959L82.31 11.8096C82.3669 11.8456 82.4272 11.8757 82.49 11.8996L82.44 11.9396Z" fill="#D5000F"/>
<path d="M19.89 48.3496H15.33C15.42 47.9896 15.5 47.6396 15.6 47.3496C17.46 41.003 19.3233 34.6696 21.19 28.3496C21.1971 28.2782 21.2189 28.2091 21.2541 28.1465C21.2893 28.084 21.337 28.0293 21.3943 27.9861C21.4516 27.9429 21.5172 27.912 21.587 27.8954C21.6568 27.8788 21.7293 27.8769 21.8 27.8896C23 27.8896 24.19 27.8896 25.45 27.8896C26.01 31.4796 26.57 35.0396 27.13 38.5996H27.23C27.28 38.4296 27.34 38.2696 27.39 38.0996C28.33 34.8996 29.29 31.7096 30.2 28.4996C30.2103 28.3962 30.2424 28.296 30.2941 28.2058C30.3457 28.1156 30.4158 28.0372 30.4998 27.9759C30.5838 27.9146 30.6797 27.8716 30.7814 27.8499C30.8831 27.8281 30.9882 27.828 31.09 27.8496C32.22 27.8496 33.35 27.8496 34.48 27.8496H35.12C33.12 34.7496 31.12 41.5496 29.12 48.3896H24.46L22.93 38.4896H22.81L19.89 48.3496Z" fill="black"/>
<path d="M0 48.3496L2 44.6596C4.96 39.1796 7.91333 33.7063 10.86 28.2396C10.9187 28.0909 11.0253 27.9659 11.1629 27.8844C11.3005 27.8029 11.4613 27.7696 11.62 27.7896C12.97 27.7896 14.33 27.7896 15.76 27.7896L14.84 48.3496H10.19L10.37 45.6296H9.19C8.63424 45.6747 8.07576 45.6747 7.52 45.6296C7.2818 45.5598 7.03147 45.5414 6.78563 45.5757C6.53978 45.61 6.30405 45.6963 6.09409 45.8287C5.88412 45.9611 5.70473 46.1366 5.56782 46.3437C5.43091 46.5508 5.33961 46.7846 5.3 47.0296C5.25767 47.273 5.16456 47.5048 5.02673 47.7099C4.8889 47.9149 4.70944 48.0886 4.50003 48.2198C4.29062 48.3509 4.05595 48.4365 3.81129 48.4709C3.56663 48.5053 3.31747 48.4879 3.08 48.4196C2.05588 48.3307 1.02711 48.3073 0 48.3496ZM11.43 34.5096H11.3L7.99 41.3496H10.67L11.43 34.5096Z" fill="black"/>
<path d="M55.09 48.3496H50.44L50.63 45.6096H49.63C48.69 45.6096 47.75 45.6096 46.82 45.6096C46.6344 45.5817 46.445 45.6207 46.2856 45.7196C46.1262 45.8185 46.0072 45.971 45.95 46.1496C45.65 46.7996 45.31 47.4297 44.95 48.0497C44.88 48.1797 44.72 48.3496 44.6 48.3596C43.17 48.3596 41.73 48.3596 40.21 48.3596C40.78 47.2896 41.31 46.2997 41.85 45.3596C44.93 39.6397 48.02 33.9263 51.12 28.2196C51.2 28.0696 51.37 27.8696 51.5 27.8696C52.96 27.8696 54.41 27.8696 55.96 27.8696C55.71 34.6796 55.4 41.4996 55.09 48.3496ZM48.27 41.3496H50.96L51.7 34.5797H51.57L48.27 41.3496Z" fill="black"/>
<path d="M39.07 48.3495H34.51L39.27 32.2495H34.92C34.92 32.0495 34.98 31.9195 35.02 31.7895C35.36 30.5895 35.7 29.3895 36.08 28.1995C36.1164 28.1076 36.1745 28.0259 36.2494 27.9614C36.3243 27.897 36.4137 27.8517 36.51 27.8295C40.7 27.8295 44.89 27.8295 49.07 27.8295C49.1199 27.8251 49.1701 27.8251 49.22 27.8295C49.2064 27.9578 49.183 28.0848 49.15 28.2095C48.81 29.3895 48.44 30.5695 48.15 31.7595C48.1431 31.8306 48.1212 31.8995 48.0859 31.9617C48.0507 32.0238 48.0027 32.0779 47.9452 32.1203C47.8877 32.1627 47.8219 32.1926 47.7521 32.2079C47.6823 32.2233 47.61 32.2238 47.54 32.2095C46.54 32.2095 45.45 32.2095 44.41 32.2095C43.98 32.2095 43.82 32.3395 43.7 32.7395C42.22 37.8328 40.73 42.9128 39.23 47.9795L39.07 48.3495Z" fill="black"/>
</svg>
