<svg width="76" height="76" viewBox="0 0 76 76" fill="none" xmlns="http://www.w3.org/2000/svg">
<rect width="76" height="76" rx="8" fill="#EB143E"/>
<g clip-path="url(#clip0_3602_955)">
<path d="M60.9803 34.439C61.192 33.9292 61.3988 33.4242 61.6056 32.9145C61.7114 32.65 61.8028 32.3806 61.8942 32.1113C61.9279 32.0055 61.9663 31.8997 62 31.7987V30.7455C61.97 30.6652 61.9443 30.5833 61.923 30.5003C61.8189 29.9736 61.6016 29.4759 61.286 29.0416C60.9704 28.6073 60.5642 28.2468 60.0954 27.9851L59.2393 27.4753C58.032 26.7539 56.8344 26.0325 55.6368 25.3064C55.3327 25.1071 55.1107 24.8049 55.0115 24.4551C54.747 23.426 54.4969 22.3824 54.2565 21.3676L54.0496 20.4924C53.5686 18.4004 52.0296 17.2847 49.8893 17.4482C48.2396 17.5684 46.6283 17.6886 45.0411 17.8281C44.7982 17.8585 44.5515 17.8332 44.3199 17.754C44.0882 17.6749 43.8775 17.544 43.704 17.3712C43.3914 17.0731 43.0643 16.7893 42.7421 16.5056C42.4198 16.2218 42.1024 15.9477 41.7802 15.6592C40.8808 14.8079 40.0631 14.2164 39.0098 14H37.9709C36.9204 14.2651 35.9696 14.8299 35.2342 15.6255C34.8975 15.9381 34.5561 16.2411 34.2098 16.5392C33.8635 16.8374 33.5556 17.1067 33.2478 17.4001C33.0775 17.563 32.873 17.686 32.6492 17.76C32.4254 17.834 32.188 17.8573 31.9541 17.8281C30.6555 17.7127 29.3569 17.6165 28.0582 17.5155L27.0097 17.4386C26.1318 17.3433 25.2486 17.564 24.5188 18.0611C23.7889 18.5582 23.2601 19.2991 23.0273 20.1509C22.5752 21.6225 22.0654 23.1903 21.5844 24.7533C21.4621 25.1008 21.2267 25.3972 20.9159 25.5949C19.9828 26.172 19.0353 26.7299 18.0878 27.2925L17.0537 27.9033C15.1299 29.0335 14.5431 30.8465 15.38 32.8808L15.861 34.0975C16.2553 35.0594 16.6497 35.9971 17.0249 36.9542C17.1497 37.2908 17.1497 37.6611 17.0249 37.9977C16.6016 39.0654 16.1639 40.1282 15.7215 41.191L15.3752 42.0278C14.5142 44.1198 15.1154 45.9136 17.0681 47.0823L18.3091 47.8181C19.3047 48.4096 20.3002 49.0011 21.2862 49.6071C21.6153 49.8197 21.8562 50.1443 21.9644 50.5208C22.1952 51.3817 22.4069 52.2617 22.6089 53.1178C22.7051 53.5266 22.8012 53.9353 22.9022 54.3393C23.4698 56.6621 24.9752 57.7057 27.3753 57.5085C28.8759 57.3739 30.4534 57.2537 32.055 57.1575H32.1224C32.4742 57.1674 32.8127 57.2943 33.0843 57.5182C33.7721 58.0953 34.4454 58.6868 35.1188 59.2783L35.9172 59.9805C36.6088 60.6321 37.5232 60.995 38.4735 60.995C39.4238 60.995 40.3383 60.6321 41.0299 59.9805L41.9437 59.1725C42.5882 58.605 43.2375 58.0376 43.8676 57.4845C44.1497 57.255 44.5045 57.1339 44.868 57.1431C45.6039 57.1911 46.3445 57.2488 47.0804 57.3114C48.0423 57.3835 49.0043 57.4653 49.9951 57.5134C52.044 57.6192 53.5157 56.513 54.0015 54.4836L54.2276 53.565C54.468 52.5551 54.7085 51.5452 54.949 50.5353C54.9878 50.333 55.0709 50.1419 55.1923 49.9756C55.3137 49.8093 55.4705 49.672 55.6513 49.5734C56.6132 49.0156 57.5751 48.4481 58.4985 47.8806L60.028 46.962C60.8496 46.5011 61.4715 45.7525 61.774 44.8604C61.8269 44.7065 61.8702 44.5527 61.9134 44.3795L61.9615 44.2208V43.1628L61.5142 42.0278C60.9803 40.6765 60.4417 39.3203 59.9222 37.9641C59.7947 37.6147 59.7947 37.2314 59.9222 36.882C60.2974 36.0981 60.6389 35.2661 60.9803 34.439ZM57.9839 38.1276C58.4938 39.3203 58.9891 40.5322 59.4797 41.7201L59.9078 42.754C60.3888 43.9611 60.1242 44.8027 59.0036 45.476L58.0753 46.0339C56.7526 46.8274 55.43 47.6209 54.0978 48.4C53.9092 48.502 53.7458 48.6446 53.6193 48.8177C53.4929 48.9907 53.4066 49.1897 53.3667 49.4003C53.1358 50.415 52.8857 51.4346 52.6356 52.4493C52.5154 52.9302 52.3903 53.4496 52.2701 53.9498C51.9574 55.2482 51.2648 55.7676 49.9855 55.6763C48.3454 55.5608 46.4407 55.4214 44.5553 55.2434C44.2974 55.1965 44.0319 55.2117 43.781 55.2878C43.5301 55.3639 43.3009 55.4987 43.1124 55.6811C42.314 56.4217 41.482 57.1238 40.6788 57.8404L39.8756 58.5425C39.6957 58.7332 39.4788 58.8851 39.2381 58.989C38.9974 59.0928 38.7381 59.1463 38.4759 59.1463C38.2138 59.1463 37.9545 59.0928 37.7138 58.989C37.4731 58.8851 37.2562 58.7332 37.0764 58.5425L36.7589 58.2684C35.7489 57.3835 34.7292 56.4986 33.7288 55.5993C33.585 55.4615 33.4127 55.3568 33.2241 55.2929C33.0354 55.2289 32.835 55.2071 32.637 55.229C30.6458 55.4021 28.8855 55.5416 27.2598 55.657C26.8183 55.7041 26.372 55.6715 25.942 55.5608C25.6202 55.4411 25.3364 55.2375 25.1199 54.9712C24.9034 54.7048 24.7621 54.3853 24.7107 54.046C24.576 53.4688 24.4365 52.8965 24.2971 52.3194C24.0566 51.3336 23.8161 50.3477 23.5901 49.357C23.5517 49.154 23.4683 48.9622 23.3459 48.7957C23.2236 48.6292 23.0654 48.4924 22.883 48.3952C21.7913 47.7556 20.7091 47.1111 19.6221 46.4715L18.0109 45.5097C16.8277 44.8075 16.5679 43.9996 17.0826 42.7252L17.5635 41.5517C18.0445 40.412 18.5014 39.2722 19.0064 38.142C19.1015 37.9405 19.1509 37.7204 19.1509 37.4976C19.1509 37.2748 19.1015 37.0547 19.0064 36.8532C18.4726 35.6028 17.9531 34.3476 17.4385 33.0876L17.0826 32.2267C16.5727 30.9908 16.8565 30.1732 18.0445 29.4807L19.5451 28.591C20.507 28.0187 21.469 27.4464 22.4309 26.8838C22.6105 26.7863 22.7683 26.6533 22.8948 26.4929C23.0214 26.3326 23.1139 26.1481 23.1668 25.9508C23.5227 24.7773 23.8867 23.6071 24.2586 22.4401L24.6867 21.0791C25.1676 19.5738 25.6967 19.2276 27.433 19.3334L28.7845 19.4344C30.0543 19.5257 31.401 19.6267 32.7477 19.7421C32.9298 19.7688 33.1156 19.7541 33.2913 19.6991C33.467 19.6442 33.628 19.5504 33.7625 19.4247C34.7469 18.5463 35.7376 17.6694 36.7348 16.7941L37.0619 16.5056C38.0238 15.6544 38.9858 15.6544 39.9477 16.5056L40.8038 17.2606C41.6215 17.982 42.4343 18.7034 43.2471 19.4247C43.3806 19.5521 43.5414 19.6474 43.7173 19.7033C43.8932 19.7591 44.0794 19.774 44.262 19.747C46.1858 19.5883 47.9991 19.4536 50.1971 19.2901C51.2311 19.2131 52.0007 19.8143 52.2701 20.9396L52.5442 22.065C52.8376 23.2528 53.1262 24.4359 53.3955 25.6286C53.4338 25.8241 53.5155 26.0086 53.6345 26.1684C53.7535 26.3282 53.9069 26.4593 54.0833 26.5519C55.5871 27.44 57.0877 28.3361 58.5851 29.2403L58.9507 29.4567C60.182 30.1973 60.4368 30.9764 59.8837 32.3422L59.3691 33.5926C58.917 34.6939 58.4649 35.7903 57.9984 36.882C57.9075 37.0767 57.8592 37.2885 57.8567 37.5033C57.8542 37.718 57.8976 37.9309 57.9839 38.1276Z" fill="white"/>
<path d="M38.5577 22.5266H38.5144C34.5435 22.5266 30.7351 24.1039 27.9273 26.9115C25.1194 29.7191 23.542 33.527 23.542 37.4976C23.542 41.4681 25.1194 45.276 27.9273 48.0836C30.7351 50.8912 34.5435 52.4685 38.5144 52.4685C42.4854 52.4742 46.296 50.9024 49.1079 48.0989C51.9198 45.2954 53.5028 41.4897 53.5085 37.5192C53.5143 33.5486 51.9423 29.7385 49.1385 26.9268C46.3347 24.1152 42.5287 22.5324 38.5577 22.5266ZM47.773 46.7889C46.5582 48.0096 45.114 48.978 43.5233 49.6383C41.9327 50.2986 40.2271 50.6377 38.5048 50.6362H38.4759C36.7522 50.6327 35.0462 50.2898 33.455 49.6271C31.8639 48.9643 30.4189 47.9947 29.2025 46.7735C26.746 44.3073 25.3698 40.9663 25.3768 37.4855C25.3838 34.0048 26.7734 30.6694 29.2399 28.213C31.7064 25.7567 35.0477 24.3807 38.5288 24.3878H38.5577C41.1524 24.394 43.687 25.1696 45.8408 26.6165C47.9945 28.0634 49.6707 30.1165 50.6572 32.5161C51.6438 34.9158 51.8963 37.5541 51.3829 40.0972C50.8695 42.6404 49.6132 44.9742 47.773 46.8033V46.7889Z" fill="white"/>
<path d="M46.0367 34.0784L41.1453 38.9645L38.8895 41.22C38.5384 41.5759 38.1825 41.9317 37.8218 42.2828C37.7351 42.3955 37.6237 42.4868 37.4961 42.5497C37.3685 42.6125 37.2281 42.6452 37.0859 42.6452C36.9437 42.6452 36.8034 42.6125 36.6758 42.5497C36.5482 42.4868 36.4368 42.3955 36.3501 42.2828C34.5224 40.4649 32.7012 38.6439 30.8863 36.8196C30.7863 36.7377 30.7045 36.6359 30.6462 36.5207C30.5878 36.4054 30.5542 36.2792 30.5474 36.1502C30.5406 36.0212 30.5608 35.8922 30.6067 35.7714C30.6527 35.6507 30.7233 35.5409 30.8142 35.449C30.8956 35.3636 30.9933 35.2953 31.1015 35.2483C31.2097 35.2012 31.3262 35.1762 31.4442 35.1748C31.7258 35.1849 31.9921 35.3059 32.1849 35.5115C33.1468 36.4733 34.1088 37.4063 35.037 38.3585L36.3597 39.6762L36.629 39.9359L37.2831 40.5515L37.5958 40.0706C37.6377 40.0086 37.6763 39.9444 37.7112 39.8782C37.7516 39.8023 37.7983 39.73 37.8507 39.6618L42.8864 34.6266L44.8102 32.7029C44.9216 32.5612 45.0721 32.4552 45.243 32.3979C45.4139 32.3407 45.5979 32.3347 45.7722 32.3807C45.94 32.418 46.0931 32.504 46.212 32.6281C46.331 32.7522 46.4106 32.9088 46.4407 33.0781C46.476 33.266 46.4567 33.46 46.3851 33.6373C46.3135 33.8146 46.1926 33.9677 46.0367 34.0784Z" fill="white"/>
</g>
<defs>
<clipPath id="clip0_3602_955">
<rect width="47" height="47" fill="white" transform="translate(15 14)"/>
</clipPath>
</defs>
</svg>
