<svg width="96" height="72" viewBox="0 0 96 72" fill="none" xmlns="http://www.w3.org/2000/svg">
<g clip-path="url(#clip0_3621_3475)">
<path d="M70.4384 0.0498047L73.9479 0.734911C79.6784 1.99691 85.2508 3.89373 90.5619 6.39028C92.0179 7.06295 93.4241 7.8851 94.8553 8.62005C95.0456 8.70023 95.2007 8.84637 95.2921 9.03168C95.3836 9.21699 95.4052 9.42906 95.3531 9.62905C94.9485 12.9221 93.5705 16.0192 91.3957 18.5231C88.4682 21.9239 84.8824 24.6953 80.8548 26.6699C79.8841 27.1806 78.9009 27.6415 77.8929 28.1398C79.3738 28.8996 80.8299 29.5972 82.2486 30.3944C86.3675 32.5541 89.9259 35.6466 92.6402 39.4256C94.1058 41.5559 95.0364 44.0087 95.3531 46.5758C95.4178 46.8025 95.398 47.045 95.2972 47.2582C95.1965 47.4713 95.0217 47.6405 94.8056 47.7342C92.4535 48.8678 90.1636 50.1135 87.7618 51.1474C82.7873 53.3126 77.586 54.9129 72.2554 55.9183L70.6002 56.1924L69.9282 56.2671V52.3681C69.9282 47.8962 69.9282 43.4117 69.9282 38.9398C69.8399 36.3978 68.8771 33.9644 67.2028 32.0512C67.1225 31.9794 67.0272 31.9264 66.9239 31.8962C66.8205 31.8661 66.7117 31.8594 66.6054 31.8768C63.8551 32.3377 61.1172 32.9481 58.3545 33.2969C55.5917 33.6457 52.6298 33.8076 49.7674 33.9446C46.0284 34.1249 42.2808 33.979 38.567 33.5086C35.3438 33.0975 32.1579 32.4623 28.9596 31.8892C28.7772 31.8294 28.5799 31.8325 28.3995 31.898C28.219 31.9634 28.0657 32.0876 27.9639 32.2505C26.3173 34.3903 25.4403 37.0238 25.475 39.7246C25.475 45.2055 25.475 50.674 25.475 56.2671C24.5043 56.1176 23.546 55.9931 22.6002 55.8062C15.6912 54.3705 8.99794 52.0424 2.68834 48.8803C1.91675 48.5066 1.20741 48.0332 0.44827 47.6346C0.298406 47.5668 0.17675 47.4489 0.104106 47.3012C0.0314617 47.1535 0.0123339 46.9851 0.0500242 46.8249C0.418648 43.565 1.74377 40.4874 3.85816 37.9806C6.0817 35.2697 8.77563 32.9825 11.8105 31.229C13.6523 30.1328 15.5439 29.1612 17.4604 28.1273C16.5644 27.6913 15.5813 27.218 14.623 26.7197C10.5309 24.7306 6.89193 21.9193 3.93283 18.4609C1.79849 15.978 0.447315 12.9176 0.0500242 9.66642C-0.00387913 9.44694 0.024694 9.21529 0.130236 9.01548C0.235777 8.81568 0.410958 8.66167 0.622517 8.58268C3.02438 7.41175 5.38889 6.1536 7.82809 5.09477C12.2368 3.19422 16.8222 1.73385 21.5175 0.734911C22.6624 0.498232 23.8198 0.286495 24.9648 0.0622736H25.5621C25.5621 5.60553 25.5621 11.1363 25.5621 16.6796C25.5476 19.4387 26.4937 22.1166 28.2378 24.2533C28.3114 24.3676 28.4219 24.4534 28.5509 24.4964C28.6798 24.5395 28.8196 24.5372 28.9471 24.4899C31.1125 24.054 33.278 23.5806 35.4683 23.2443C39.0565 22.6962 42.6783 22.3965 46.3078 22.3474C50.5013 22.2595 54.6953 22.4969 58.8522 23.0574C61.4905 23.4311 64.104 24.0041 66.7299 24.465C66.8284 24.4835 66.9299 24.4797 67.0268 24.4538C67.1237 24.428 67.2136 24.3807 67.2899 24.3156C69.0135 22.341 69.991 19.8241 70.0526 17.2027C70.0526 13.1294 70.0526 9.04359 70.0526 4.97023C70.0526 3.3384 69.9905 1.69411 69.9531 0.0622736L70.4384 0.0498047ZM62.7226 28.1647C54.9695 22.9702 40.0107 23.182 32.6931 28.1647C39.712 32.9232 54.3597 33.4962 62.7226 28.1149V28.1647Z" fill="black"/>
<path d="M62.5357 72C62.4335 71.7914 62.3622 71.569 62.3241 71.3398C62.3241 69.8325 62.3241 68.3377 62.3241 66.8429C62.3241 66.382 62.4735 66.1827 62.9464 66.2201C63.385 66.2637 63.8269 66.2637 64.2655 66.2201C64.5654 66.1755 64.8712 66.242 65.1256 66.4072C65.3799 66.5723 65.5653 66.8247 65.6469 67.1169C66.07 68.0138 66.5305 68.8983 67.0407 69.9322C67.5509 68.9356 68.0114 68.0886 68.4221 67.2166C68.5077 66.8853 68.7163 66.5991 69.0053 66.4163C69.2943 66.2335 69.642 66.1678 69.9777 66.2325C70.4133 66.2948 70.8613 66.2325 71.2968 66.2325C71.4586 66.2325 71.7325 66.4817 71.7325 66.6187C71.7325 68.2879 71.7325 69.9695 71.7325 71.6014C71.7152 71.7162 71.686 71.8289 71.6453 71.9377H70.0897C70.031 71.6707 69.9894 71.4003 69.9652 71.128C69.9652 70.1813 69.9652 69.2346 69.9652 68.3004H69.8408L67.8123 71.9751H66.2442L64.2032 68.238C64.0912 69.2844 64.1037 70.2934 64.0913 71.3024C64.0729 71.5344 64.0312 71.7639 63.9668 71.9875L62.5357 72Z" fill="black"/>
<path d="M73.5743 72.0001C73.2526 71.8891 72.9732 71.6809 72.7748 71.4042C72.5764 71.1275 72.4687 70.796 72.4667 70.4554C72.4044 69.4848 72.4044 68.5112 72.4667 67.5406C72.4762 67.3578 72.5219 67.1787 72.601 67.0137C72.6802 66.8488 72.7913 66.7011 72.9279 66.5795C73.0645 66.4578 73.2239 66.3645 73.3968 66.305C73.5697 66.2454 73.7527 66.2208 73.9352 66.2326C75.4783 66.2326 77.034 66.2326 78.5896 66.2326C78.7721 66.2276 78.9537 66.2589 79.124 66.3246C79.2943 66.3903 79.4499 66.4892 79.5818 66.6154C79.7137 66.7417 79.8193 66.8928 79.8925 67.0602C79.9657 67.2275 80.0051 67.4077 80.0083 67.5904C80.0705 68.6192 80.0705 69.6509 80.0083 70.6797C79.9755 70.9794 79.8571 71.2633 79.6673 71.4975C79.4775 71.7317 79.2243 71.9062 78.938 72.0001H73.5743ZM76.2873 70.4928H77.3078C77.9176 70.4928 78.1415 70.1565 78.2162 69.5959C78.3531 68.4499 78.2163 67.9018 77.6313 67.7274C77.574 67.7145 77.5145 67.7145 77.4571 67.7274C76.7104 67.7274 75.9513 67.7274 75.1921 67.7274C75.0371 67.7639 74.892 67.8342 74.7673 67.9332C74.6425 68.0323 74.5411 68.1577 74.4703 68.3004C73.9849 69.8077 74.4703 70.5177 76.0633 70.5177L76.2873 70.4928Z" fill="black"/>
<path d="M88.7819 71.9999C88.7264 71.7918 88.6889 71.5792 88.67 71.3646C88.67 69.9072 88.67 68.4497 88.67 66.9923C88.67 66.4193 88.894 66.2075 89.454 66.2075C91.1465 66.2075 92.839 66.2075 94.5315 66.2075C94.697 66.1886 94.8646 66.2031 95.0244 66.2502C95.1842 66.2974 95.3329 66.3761 95.4617 66.4818C95.5905 66.5875 95.6969 66.7181 95.7744 66.8657C95.8519 67.0133 95.899 67.1749 95.9129 67.3411C96.0591 67.7434 96.0814 68.1803 95.9772 68.5955C95.8729 69.0107 95.6468 69.3852 95.328 69.6705C95.6529 69.9487 95.8811 70.3231 95.9795 70.7395C96.0779 71.156 96.0415 71.593 95.8755 71.9875H94.071C94.071 71.7134 93.9964 71.4394 93.984 71.1653C93.984 70.7044 93.7599 70.5175 93.3119 70.53C92.8639 70.5425 92.5154 70.53 92.0674 70.53C91.9341 70.563 91.7955 70.5688 91.6599 70.5469C91.5243 70.525 91.3945 70.476 91.2783 70.4027C91.1621 70.3295 91.0619 70.2334 90.9836 70.1205C90.9054 70.0075 90.8507 69.8799 90.8229 69.7453H90.686C90.7049 70.0065 90.7049 70.2688 90.686 70.53C90.686 71.0283 90.5616 71.5266 90.4869 72.0248L88.7819 71.9999ZM90.6363 68.948C91.6194 68.948 92.5652 68.948 93.511 68.948C93.9217 68.948 94.096 68.6615 94.0586 68.2504C94.0213 67.8394 93.7599 67.7771 93.4364 67.7771H91.6319C90.5616 67.7895 90.5616 67.7895 90.6363 68.948Z" fill="black"/>
<path d="M54.6207 71.9999C54.5652 71.7918 54.5276 71.5792 54.5087 71.3646C54.5087 69.9071 54.5087 68.4497 54.5087 66.9923C54.5087 66.4442 54.6829 66.195 55.2803 66.2075C56.923 66.2075 58.5782 66.2075 60.2582 66.2075C61.2538 66.2075 61.6645 66.5314 61.789 67.4532C61.8885 68.2379 62.0129 69.0725 61.1791 69.5957C61.503 69.8802 61.7299 70.2589 61.8281 70.6788C61.9263 71.0987 61.8908 71.5388 61.7267 71.9376H59.8849C59.7853 71.4891 59.8849 70.8539 59.5488 70.6296C59.2128 70.4054 58.6404 70.4677 58.1799 70.4926C57.4581 70.4926 56.7737 70.4926 56.5497 69.5957C56.4874 69.9819 56.5497 70.3058 56.4874 70.6296C56.4252 70.9535 56.3505 71.5016 56.2883 71.9376L54.6207 71.9999ZM56.4625 68.9604C57.4457 68.9604 58.4039 68.9604 59.3498 68.9604C59.7604 68.9604 59.9222 68.6988 59.8973 68.2753C59.8724 67.8518 59.5987 67.802 59.2751 67.802H57.4706C56.3879 67.7895 56.3879 67.7895 56.4625 68.9604Z" fill="black"/>
<path d="M34.236 72.0001C34.1685 71.7971 34.1185 71.5887 34.0866 71.3772C34.0866 69.9073 34.0866 68.4249 34.0866 66.9551C34.0866 66.4194 34.2857 66.2077 34.8333 66.2201H39.8113C40.0083 66.1755 40.2132 66.1796 40.4083 66.232C40.6034 66.2845 40.7828 66.3836 40.931 66.521C41.0793 66.6583 41.1919 66.8297 41.2592 67.0204C41.3264 67.211 41.3463 67.4152 41.3171 67.6153C41.3171 68.3502 41.5037 69.1599 40.6575 69.6582C41.566 70.2686 41.3171 71.1655 41.2922 72.0001H39.4877C39.428 71.7333 39.3865 71.4627 39.3633 71.1903C39.3633 70.7294 39.1517 70.5426 38.7036 70.5426C38.2556 70.5426 37.9445 70.5426 37.5712 70.5426C37.2977 70.6073 37.0099 70.5679 36.7638 70.4321C36.5177 70.2963 36.3309 70.0737 36.2396 69.8077C36.2396 69.8077 36.1774 69.8077 36.0902 69.8077C36.0902 70.3433 36.0902 70.8789 36.0902 71.4146C36.0421 71.6508 35.9669 71.8807 35.8662 72.0997L34.236 72.0001ZM36.0653 68.998H38.293C38.5729 69.0276 38.8557 68.9847 39.1143 68.8734C39.2049 68.8009 39.2793 68.7103 39.3329 68.6073C39.3864 68.5043 39.418 68.3913 39.4255 68.2755C39.4255 68.126 39.2263 67.827 39.1019 67.8146C38.0938 67.8146 37.0858 67.8146 36.0653 67.8146V68.998Z" fill="black"/>
<path d="M10.5035 71.9999C10.4343 71.7982 10.3883 71.5893 10.3666 71.3771C10.3666 69.8449 10.3666 68.3003 10.3666 66.7681C10.3666 66.357 10.4662 66.1826 10.9018 66.2075C11.3152 66.2563 11.7329 66.2563 12.1463 66.2075C12.4832 66.1717 12.8234 66.2323 13.1274 66.3823C13.4314 66.5322 13.6867 66.7653 13.8637 67.0546C14.5481 67.964 15.2575 68.8484 15.9544 69.7453C16.0415 69.8574 16.1535 69.957 16.3402 70.1563C16.3402 69.0103 16.3402 67.9764 16.3402 66.9549C16.3402 66.3819 16.5019 66.1951 17.0868 66.2075C18.3313 66.2075 18.182 66.0705 18.1945 67.3287V71.9999H15.5561C15.263 71.7418 14.9847 71.4673 14.7224 71.1778L12.42 68.3626C12.3203 68.2544 12.2121 68.1544 12.0964 68.0636C12.0964 69.2096 12.0964 70.2684 12.0964 71.3148C12.0731 71.5461 12.0315 71.7752 11.972 71.9999H10.5035Z" fill="black"/>
<path d="M18.8914 72.0001V66.27H19.3643H23.9191C25.624 66.27 26.3209 66.98 26.3334 68.6617V69.5586C26.3334 71.2652 26.1841 71.5018 24.6534 72.0499L18.8914 72.0001ZM20.7083 67.7897V70.4306C21.567 70.4306 22.3884 70.4306 23.1973 70.4306C24.4418 70.5178 24.5414 69.9572 24.5165 68.9981C24.5049 68.8007 24.4757 68.6048 24.4294 68.4126C24.4215 68.3225 24.396 68.2348 24.3542 68.1546C24.3123 68.0744 24.255 68.0034 24.1856 67.9455C24.1162 67.8876 24.036 67.844 23.9497 67.8173C23.8634 67.7905 23.7726 67.7812 23.6826 67.7897H20.7083Z" fill="black"/>
<path d="M27.7646 72C27.5059 71.8669 27.2929 71.6593 27.1532 71.404C27.0135 71.1487 26.9534 70.8573 26.9806 70.5674C26.9806 69.5709 26.9806 68.5744 26.9806 67.5778C26.9676 67.3995 26.9931 67.2204 27.0554 67.0528C27.1178 66.8852 27.2155 66.733 27.3418 66.6065C27.4681 66.4801 27.6202 66.3823 27.7876 66.32C27.955 66.2576 28.134 66.232 28.3122 66.245H32.7425C33.1657 66.245 33.3026 66.3695 33.3026 66.7931C33.3026 67.7024 33.3025 67.7024 32.4065 67.7024H29.4695C29.1709 67.7024 28.8348 67.7024 28.8473 68.1384C28.8597 68.5744 29.2082 68.4747 29.4571 68.4747C30.1167 68.4747 30.7763 68.4747 31.4234 68.4747C32.5808 68.4747 32.6679 68.4747 32.9915 69.7204C32.8723 69.771 32.7466 69.8045 32.6181 69.8201C31.635 69.8201 30.6642 69.8201 29.6811 69.8201C29.3948 69.8201 29.1335 69.4464 28.8348 69.2221C28.7981 69.57 28.7981 69.9207 28.8348 70.2685C28.8348 70.4055 29.1708 70.5674 29.3575 70.5674C30.3904 70.5674 31.4358 70.5674 32.4687 70.5674C33.5016 70.5674 33.427 70.5675 33.3648 71.5391C33.3424 71.6973 33.3006 71.8521 33.2404 72H27.7646Z" fill="black"/>
<path d="M4.14418 72C2.66323 71.4394 2.42677 71.0782 2.42677 69.4214C2.42677 68.5619 2.42677 67.7024 2.42677 66.8429C2.42677 66.4193 2.55122 66.2076 3.04902 66.2076C4.60463 66.2076 4.29351 66.1328 4.29351 67.4532C4.29351 68.1508 4.29351 68.8484 4.29351 69.546C4.29351 70.2436 4.51748 70.4429 5.18951 70.4553H6.91937C7.52917 70.4553 7.76561 70.2435 7.76561 69.6332C7.76561 68.6989 7.76561 67.7647 7.76561 66.818C7.76561 66.382 7.90254 66.22 8.35056 66.2325C9.85639 66.3072 9.59505 66.0083 9.59505 67.5529C9.59505 68.1882 9.59505 68.7986 9.59505 69.4588C9.59505 71.0906 9.37101 71.427 7.9274 72.0249L4.14418 72Z" fill="black"/>
<path d="M45.2746 72L48.2738 66.4816C48.3092 66.4091 48.3602 66.3453 48.4231 66.2947C48.8725 66.1761 49.3431 66.1627 49.7985 66.2556C50.2539 66.3484 50.6819 66.5451 51.049 66.8304C51.97 68.4622 52.866 70.119 53.762 71.8131C53.762 71.8754 53.762 71.9626 53.762 72.0498H51.7335C51.4099 71.0532 51.4099 71.0532 50.377 71.0532C49.5556 71.0532 48.5849 71.3398 48.3609 70.0193L47.2906 72.0498L45.2746 72ZM48.5973 69.5958H50.489L49.5805 67.8394L48.5973 69.5958Z" fill="black"/>
<path d="M82.4351 71.9999C80.9666 71.4394 80.7426 71.1031 80.7426 69.5086C80.7426 68.6366 80.7426 67.7522 80.7426 66.8802C80.7426 66.4567 80.8421 66.2698 81.3026 66.2698C82.5471 66.2698 82.5471 66.2698 82.5471 67.5155C82.5471 68.2006 82.5471 68.8733 82.5471 69.5584C82.5471 70.2435 82.796 70.4428 83.4555 70.4428H85.1356C85.82 70.4428 86.0317 70.2435 86.0566 69.5584C86.0566 68.6366 86.0566 67.7148 86.0566 66.793C86.0566 66.3321 86.2059 66.2075 86.6414 66.22C88.1348 66.22 87.8859 66.0705 87.8859 67.4657C87.8859 68.1134 87.8859 68.7113 87.8859 69.384C87.8859 71.0657 87.6619 71.3771 86.1685 71.9875L82.4351 71.9999Z" fill="black"/>
</g>
<defs>
<clipPath id="clip0_3621_3475">
<rect width="96" height="72" fill="white"/>
</clipPath>
</defs>
</svg>
