<svg width="115" height="59" viewBox="0 0 115 59" fill="none" xmlns="http://www.w3.org/2000/svg">
<path d="M68.7996 45.1756V57.6148C68.7996 58.1167 68.7996 58.076 68.3286 58.076H61.8025C61.1566 58.076 61.2105 58.1709 61.2105 57.5063V35.1103C61.2238 34.9251 61.2238 34.7392 61.2105 34.5541C61.1825 34.2532 61.0495 33.9722 60.8351 33.761C60.6206 33.5498 60.3388 33.4222 60.0398 33.4011C59.7175 33.377 59.3975 33.4707 59.138 33.6649C58.8786 33.8592 58.6972 34.1411 58.627 34.4591C58.6136 34.6443 58.6136 34.8302 58.627 35.0153V57.6148C58.627 58.1845 58.7077 58.1302 58.1156 58.1302H51.5089C51.0783 58.1302 51.0783 58.1302 51.0783 57.6961V34.6355C51.0222 34.3411 50.871 34.0737 50.6483 33.8751C50.4256 33.6765 50.1439 33.5579 49.8472 33.5377C49.5506 33.5176 49.2556 33.5971 49.0085 33.7638C48.7614 33.9305 48.576 34.175 48.4813 34.4591C48.474 34.5404 48.474 34.6221 48.4813 34.7033C48.4813 34.839 48.4813 34.9746 48.4813 35.1238V57.6148C48.4813 58.1981 48.4813 58.1302 47.9565 58.1302H41.2286C40.8249 58.1302 40.8249 58.1302 40.8249 57.7097C40.8249 49.4079 40.8249 41.1015 40.8249 32.7906C40.8028 32.3404 40.8995 31.8922 41.1051 31.4919C41.3108 31.0916 41.6181 30.7534 41.9956 30.5117C42.333 30.2897 42.7234 30.1632 43.1259 30.1454H66.0008C66.2513 30.1185 66.5039 30.1185 66.7543 30.1454C67.3095 30.2563 67.8105 30.5545 68.175 30.991C68.5394 31.4275 68.7456 31.9761 68.7592 32.5465V45.1756H68.7996Z" fill="black"/>
<path d="M86.6691 22.4134C84.94 22.3913 83.2177 22.1913 81.5289 21.8165C78.9143 21.2386 76.5131 19.932 74.5992 18.0454C73.9667 17.435 73.3612 16.811 72.7423 16.2006L72.1906 15.7122C72.0971 15.6411 71.9981 15.5776 71.8945 15.5223C71.852 15.4891 71.8031 15.4651 71.751 15.4518C71.6988 15.4386 71.6445 15.4363 71.5914 15.4452C71.5383 15.4542 71.4877 15.474 71.4426 15.5037C71.3975 15.5333 71.359 15.5719 71.3294 15.6173C71.1441 15.8202 70.9415 16.0063 70.7239 16.1734C70.0077 16.7791 69.1145 17.1317 68.1808 17.1773C66.8698 17.2269 65.5643 16.9813 64.3593 16.4583C63.4712 16.1192 62.637 15.6987 61.7893 15.3053C61.4381 15.1238 61.0738 14.9697 60.6994 14.8441C60.0266 14.627 59.7978 14.7627 59.6632 15.4545L59.5421 16.0514C59.5108 16.2093 59.4297 16.3527 59.3108 16.4603C59.192 16.5678 59.0418 16.6338 58.8828 16.6482C58.5654 16.6877 58.2434 16.6546 57.9405 16.5513C57.6377 16.4479 57.3618 16.2771 57.1335 16.0514C57.0428 15.9756 56.9615 15.889 56.8913 15.7936C56.5849 15.446 56.4156 14.9971 56.4156 14.5321C56.4156 14.067 56.5849 13.6181 56.8913 13.2705C57.2088 12.8445 57.6373 12.5158 58.1292 12.321C58.8313 12.0174 59.5757 11.8252 60.336 11.7512C61.2387 11.6617 62.1501 11.7352 63.0272 11.9683H63.2021C63.3121 12.002 63.4283 12.0094 63.5416 11.99C63.6548 11.9706 63.762 11.9248 63.8547 11.8564C63.9474 11.7879 64.0231 11.6987 64.0756 11.5957C64.1282 11.4926 64.1561 11.3787 64.1574 11.2629C64.1978 11.0022 64.1978 10.7368 64.1574 10.4761C64.137 10.318 64.0786 10.1674 63.9871 10.0373C63.8956 9.90726 63.7739 9.80176 63.6327 9.73002C63.246 9.53592 62.8336 9.39887 62.4082 9.32307C62.1719 9.30246 61.934 9.33016 61.7085 9.40447C61.4943 9.4443 61.283 9.49868 61.0761 9.56725C60.8136 9.65498 60.5307 9.65908 60.2659 9.57898C60.001 9.49889 59.7672 9.33848 59.596 9.1196L59.2057 8.65839C58.9313 8.38545 58.6239 8.14845 58.2907 7.953C58.079 7.81894 57.8807 7.66448 57.6987 7.49179C57.5659 7.36537 57.4676 7.20659 57.4134 7.03077C57.3592 6.85494 57.3509 6.66799 57.3892 6.48797C57.4184 6.32657 57.4986 6.17904 57.6179 6.06745C57.7884 5.90767 57.9682 5.7582 58.1562 5.6198C58.3329 5.50057 58.4821 5.34435 58.5935 5.16176C58.705 4.97918 58.7761 4.77451 58.802 4.56173C58.802 4.56173 58.802 4.4532 58.802 4.38537C58.8111 4.15938 58.8845 3.94079 59.0133 3.75562C59.1421 3.57044 59.321 3.42648 59.5286 3.34088L59.6902 3.25947C60.2694 3.01453 60.7454 2.57304 61.0358 2.01148C61.2107 1.67236 61.3856 1.33323 61.5739 0.994101C61.7623 0.654973 62.018 0.478627 62.3813 0.994101C62.5563 1.21114 62.7311 1.44176 62.9195 1.64524C63.1079 1.84872 63.3097 1.93011 63.5654 1.64524C63.821 1.36037 63.9287 1.23827 64.1036 1.03479C64.2136 0.900197 64.3456 0.785509 64.4938 0.695667C64.7226 0.560016 64.8303 0.560033 64.9783 0.777075C65.1046 0.960781 65.2214 1.15094 65.3282 1.34681C65.5031 1.64524 65.6646 1.95723 65.826 2.25566C65.8484 2.32862 65.8929 2.39268 65.9532 2.43889C66.0136 2.4851 66.0867 2.51117 66.1624 2.5134C67.9927 2.68672 69.776 3.19707 71.4236 4.01913C73.8817 5.20277 76.2015 6.65868 78.3399 8.35996C80.0623 9.71646 81.677 11.073 83.2917 12.5109C84.63 13.7612 86.0704 14.8956 87.5975 15.9021C89.0443 16.8326 90.5874 17.6013 92.1994 18.1946C93.1269 18.5064 94.09 18.6979 95.0655 18.7644C95.9972 18.8338 96.933 18.7068 97.8133 18.3915C98.6937 18.0762 99.4992 17.5795 100.179 16.9331C101.513 15.7422 102.569 14.2693 103.274 12.6194C103.758 11.5206 104.175 10.3947 104.619 9.29595C105.222 7.80857 105.98 6.38985 106.88 5.06363C108.086 3.32485 109.687 1.90172 111.549 0.912713C112.017 0.645353 112.534 0.479046 113.069 0.424369C113.342 0.403303 113.615 0.453422 113.862 0.56986C114.11 0.686298 114.323 0.865125 114.482 1.08907C114.627 1.28058 114.732 1.49911 114.792 1.73197C114.852 1.96483 114.866 2.20738 114.832 2.44558C114.759 3.00209 114.562 3.53486 114.257 4.00448C113.952 4.47409 113.546 4.86854 113.069 5.15859C112.289 5.64694 111.455 6.04032 110.634 6.44727C108.799 7.33297 107.267 8.74973 106.234 10.5168C105.472 11.8634 104.789 13.254 104.189 14.6813C103.919 15.2917 103.65 15.8886 103.408 16.5126C102.974 17.5492 102.316 18.4758 101.484 19.2256C100.899 19.7841 100.269 20.2923 99.6001 20.7449L99.3982 20.8941C99.3714 20.9206 99.3501 20.9523 99.3355 20.9872C99.3209 21.0222 99.3135 21.0597 99.3135 21.0976C99.3135 21.1355 99.3209 21.173 99.3355 21.2079C99.3501 21.2429 99.3714 21.2745 99.3982 21.301C99.486 21.4521 99.5898 21.5931 99.7078 21.7216C100.146 22.2034 100.48 22.7715 100.69 23.3901C101.17 24.6604 101.513 25.9794 101.713 27.3239C101.847 28.2192 101.941 29.1281 101.995 30.037C102.049 30.9458 101.995 31.4749 101.995 32.1938C101.995 32.5465 101.995 32.9128 101.995 33.2655C102.009 33.6516 102.115 34.0286 102.305 34.3642L102.91 35.4223C103.16 35.8072 103.49 36.1315 103.879 36.3719C104.152 36.5276 104.413 36.7045 104.66 36.9009C104.989 37.1913 105.192 37.6006 105.225 38.0404C105.225 38.3388 105.225 38.6237 105.225 38.9221C105.273 39.5925 105.486 40.2403 105.844 40.8077C106.019 41.1061 106.207 41.3774 106.368 41.6758C106.474 41.8491 106.53 42.0487 106.53 42.2523C106.53 42.4559 106.474 42.6555 106.368 42.8289C106.12 43.3663 106.022 43.9621 106.086 44.5516C106.086 44.9721 106.086 45.3791 106.086 45.7996C106.086 46.2201 105.951 46.3558 105.548 46.3558C104.997 46.3714 104.452 46.231 103.977 45.9504C103.501 45.6699 103.113 45.2604 102.856 44.7687C102.479 44.057 102.241 43.2786 102.157 42.4762C102.074 41.7922 102.038 41.1032 102.049 40.4143C102.049 40.1294 102.049 39.8445 102.049 39.5597C102.069 39.3875 102.042 39.213 101.971 39.0552C101.9 38.8974 101.787 38.7622 101.645 38.6644C101.04 38.2167 100.475 37.7419 99.8827 37.3079C99.3355 36.8737 98.8309 36.3876 98.3757 35.8564C97.3989 34.7783 96.4996 33.6314 95.6845 32.4244C94.8304 31.1547 94.1259 29.789 93.5854 28.3549C93.2529 27.4087 92.8245 26.4995 92.3071 25.6419C91.768 24.7722 91.0442 24.034 90.1879 23.4804C89.3317 22.9268 88.3642 22.5717 87.3553 22.4405C87.2166 22.4271 87.0769 22.4271 86.9382 22.4405L86.6691 22.4134Z" fill="black"/>
<path d="M89.1853 45.162V57.6148C89.1853 58.1167 89.1853 58.076 88.7278 58.076H81.9998C81.5693 58.076 81.5692 58.076 81.5692 57.6419V51.4155C81.5692 50.9543 81.5693 51.0086 81.1656 51.0086H79.3491C78.9589 51.0086 78.9588 51.0086 78.9588 51.3884V57.6148C78.9588 58.1438 79.0261 58.1031 78.4879 58.1031H71.76C71.289 58.1031 71.3159 58.1031 71.3159 57.6555V32.7635C71.2918 32.2997 71.3945 31.8381 71.6128 31.429C71.8311 31.02 72.1567 30.6792 72.5539 30.4439C72.8588 30.2432 73.2125 30.1305 73.5765 30.1183H86.4402C86.9687 30.0928 87.493 30.225 87.9474 30.4982C88.2688 30.7028 88.5392 30.9794 88.7375 31.3064C88.9359 31.6333 89.0568 32.002 89.0911 32.3837C89.0911 32.5465 89.0911 32.7228 89.0911 32.8992L89.1853 45.162ZM81.5827 41.0111V35.1239C81.5686 35.0113 81.5686 34.8973 81.5827 34.7847C81.6052 34.5264 81.5474 34.2674 81.4171 34.0437C81.2869 33.8201 81.0909 33.6429 80.8561 33.5367C80.622 33.4281 80.3619 33.3895 80.1066 33.4256C79.8514 33.4616 79.6118 33.5709 79.4163 33.7402C79.2584 33.879 79.1348 34.0531 79.0554 34.2486C78.976 34.444 78.9428 34.6555 78.9588 34.8661V47.251C78.9588 47.6173 78.9588 47.6173 79.3221 47.6309H81.1656C81.5962 47.6309 81.5692 47.6309 81.5692 47.2239L81.5827 41.0111Z" fill="black"/>
<path d="M38.1876 43.2223V55.6344C38.1997 55.9708 38.1495 56.3066 38.0396 56.6246C37.8726 57.0688 37.5706 57.4485 37.1766 57.7092C36.7827 57.9699 36.317 58.0983 35.8463 58.0761H23.0498C22.7993 58.1031 22.5467 58.1031 22.2963 58.0761C21.7791 57.9929 21.3077 57.7281 20.9655 57.3285C20.6232 56.9288 20.4321 56.4201 20.4259 55.8921C20.4259 54.1286 20.4259 52.3652 20.4259 50.6153V30.661C20.4259 29.9963 20.426 30.1049 20.9911 30.1049H27.6114C28.0823 30.1049 28.0554 30.1049 28.0554 30.5525C28.0554 38.0223 28.0554 45.4967 28.0554 52.9756C28.0554 53.1384 28.0554 53.3012 28.0554 53.4639C28.0727 53.8118 28.222 54.1397 28.4725 54.3796C28.723 54.6195 29.0555 54.7531 29.401 54.7526C29.7443 54.7533 30.0749 54.6215 30.325 54.3845C30.5752 54.1474 30.726 53.823 30.7466 53.4775C30.7533 53.3555 30.7533 53.2332 30.7466 53.1112V30.4847C30.7466 30.037 30.6658 30.0506 31.1906 30.0506H37.9185C38.2818 30.0506 38.2953 30.0506 38.2953 30.4168L38.1876 43.2223Z" fill="black"/>
<path d="M0 44.05V30.4849C0 29.9694 4.92847e-05 30.0101 0.471003 30.0101H15.084C15.3868 29.9962 15.69 30.0236 15.9855 30.0915C16.4954 30.2305 16.9462 30.5337 17.2693 30.9549C17.5924 31.3761 17.77 31.8923 17.7752 32.4247V44.7825C17.7752 46.0305 17.7752 47.2785 17.7752 48.5265C17.7612 49.1695 17.4988 49.7816 17.0439 50.2325C16.589 50.6835 15.9776 50.9377 15.3397 50.941H7.77751C7.66986 50.941 7.61604 50.9411 7.61604 51.0903C7.61604 51.2395 7.61604 51.2938 7.61604 51.4023V57.588C7.61604 58.0085 7.61605 58.0085 7.19892 58.0085H0.471003C0.0538726 58.0085 0.0538759 58.0085 0.0538759 57.588L0 44.05ZM7.60257 40.4417V47.0886C7.59586 47.1925 7.59586 47.2967 7.60257 47.4006C7.60257 47.5091 7.60257 47.5634 7.76404 47.5634C8.21155 47.6063 8.66211 47.6063 9.10962 47.5634C9.33484 47.5372 9.54846 47.4485 9.72665 47.3072C9.90483 47.1659 10.0406 46.9775 10.1188 46.763C10.1745 46.56 10.1972 46.3493 10.1861 46.139V34.785C10.1861 34.4253 10.0443 34.0802 9.79194 33.8258C9.53959 33.5714 9.19736 33.4285 8.84049 33.4285C8.57137 33.4285 8.30227 33.4285 8.0197 33.4285C7.73713 33.4285 7.58911 33.4285 7.58911 33.849L7.60257 40.4417Z" fill="black"/>
</svg>
