<svg width="106" height="72" viewBox="0 0 106 72" fill="none" xmlns="http://www.w3.org/2000/svg">
<path d="M47.9492 9.80632L63.3011 0.471436L90.7822 46.6007H86.2571C81.0148 46.6007 75.7834 46.6007 70.5521 46.6007C70.3131 46.6322 70.0705 46.584 69.8612 46.4635C69.652 46.3429 69.4876 46.1567 69.3933 45.9331C67.0756 41.9944 64.7432 38.0594 62.3961 34.1282L52.8053 17.9952L47.9492 9.80632Z" fill="black"/>
<path d="M62.4623 46.5116C61.1821 46.5116 59.9018 46.5784 58.6216 46.5784H42.2102C42.0119 46.602 41.8112 46.5634 41.6354 46.4678C41.4596 46.3722 41.3173 46.2244 41.2279 46.0443C37.3725 39.5466 33.506 33.0564 29.6285 26.5735C29.5623 26.4622 29.5181 26.351 29.4409 26.1952L44.8259 16.8826C45.9295 18.6405 46.9007 20.3651 47.9161 22.0896C52.7428 30.1672 57.5621 38.2523 62.374 46.3447C62.4044 46.4019 62.4302 46.4615 62.4513 46.5228L62.4623 46.5116Z" fill="black"/>
<path d="M62.4512 46.5227H66.7997V70.7556H62.5396L62.4733 69.8543C60.5407 71.1023 58.2235 71.5984 55.9545 71.2498C53.6856 70.9012 51.6201 69.7319 50.1439 67.9602C48.6677 66.1885 47.8817 63.9357 47.9327 61.6225C47.9838 59.3093 48.8685 57.0939 50.4214 55.3902C51.9128 53.731 53.9325 52.6493 56.1312 52.3324C58.3299 52.0155 60.5694 52.4831 62.4623 53.6546V46.467L62.4512 46.5227ZM62.4512 61.8323C62.7603 59.0396 60.0894 56.5474 57.4075 56.5808C56.0318 56.5734 54.7095 57.1172 53.7316 58.0927C52.7536 59.0682 52.2001 60.3954 52.1928 61.7823C52.1854 63.1692 52.725 64.5022 53.6926 65.4881C54.6602 66.474 55.9766 67.032 57.3524 67.0394C60.4978 67.0394 62.8045 64.269 62.5065 61.8323H62.4512Z" fill="black"/>
<path d="M35.0584 46.6006H39.3738V70.7556H35.1026V69.9322C29.783 72.4912 25.1697 71.7013 21.9249 66.5944C20.8313 64.852 20.3569 62.7869 20.5794 60.7373C20.802 58.6877 21.7083 56.775 23.15 55.3124C24.6598 53.7051 26.6736 52.6723 28.8512 52.3885C31.0289 52.1048 33.237 52.5873 35.1026 53.7547L35.0584 46.6006ZM35.0584 61.8323C35.0835 61.1671 34.9779 60.5034 34.7477 59.8794C34.5174 59.2554 34.1671 58.6835 33.7168 58.1965C33.2666 57.7095 32.7252 57.317 32.124 57.0416C31.5228 56.7663 30.8735 56.6134 30.2134 56.5919C29.5317 56.556 28.8496 56.6564 28.2066 56.8872C27.5635 57.1181 26.9721 57.475 26.4663 57.9372C25.9606 58.3995 25.5505 58.958 25.2598 59.5807C24.9691 60.2033 24.8035 60.8778 24.7724 61.5653C24.7185 62.9569 25.2127 64.3135 26.1473 65.339C27.0819 66.3646 28.3809 66.9758 29.7609 67.0394C30.4548 67.0714 31.1479 66.9598 31.7974 66.7115C32.447 66.4631 33.0392 66.0834 33.5376 65.5955C34.036 65.1077 34.43 64.5221 34.6953 63.8749C34.9607 63.2277 35.0918 62.5326 35.0805 61.8323H35.0584Z" fill="black"/>
<path d="M14.4532 53.7327L14.5304 52.7981H18.8126V70.7447H14.5415L14.4642 69.8546C13.3537 70.5587 12.1097 71.0213 10.8117 71.2129C9.51372 71.4045 8.1903 71.3208 6.92622 70.9672C5.00081 70.4565 3.29488 69.323 2.07016 67.7406C1.05768 66.4647 0.387823 64.9477 0.125021 63.3353C-0.137782 61.723 0.0152941 60.0696 0.569542 58.5342C1.12379 56.9988 2.06053 55.6329 3.28975 54.5679C4.51897 53.503 5.99935 52.7747 7.58845 52.4532C9.9549 51.9952 12.4056 52.452 14.4532 53.7327ZM14.4532 61.8104C14.7512 59.1846 12.301 56.5032 9.1887 56.5699C7.84374 56.6583 6.58542 57.2698 5.67915 58.2756C4.77287 59.2813 4.28951 60.6026 4.33103 61.9607C4.37255 63.3188 4.93572 64.6076 5.90171 65.5551C6.8677 66.5027 8.161 67.0349 9.50881 67.0397C12.3121 66.9506 14.7401 64.4361 14.5083 61.8104H14.4532Z" fill="black"/>
<path d="M82.8358 53.7214L82.9241 52.7979H87.1732V70.7333H82.9241L82.8247 69.8655C80.9097 71.0445 78.641 71.4979 76.4247 71.1444C74.2084 70.791 72.1892 69.6538 70.7287 67.9364C69.2682 66.2191 68.4616 64.0338 68.4536 61.7717C68.4455 59.5096 69.2363 57.3185 70.6845 55.5906C72.1608 53.8766 74.1935 52.7476 76.4194 52.4052C78.6454 52.0628 80.9196 52.5293 82.8358 53.7214ZM82.8358 61.8324C83.1448 59.1955 80.6285 56.5475 77.7259 56.5697C76.3901 56.6318 75.1294 57.2104 74.2059 58.1854C73.2824 59.1603 72.7671 60.4565 72.7671 61.8046C72.7671 63.1526 73.2824 64.4489 74.2059 65.4238C75.1294 66.3987 76.3901 66.9773 77.7259 67.0394C78.4079 67.0531 79.0856 66.9277 79.7184 66.6708C80.3511 66.414 80.9259 66.0309 81.4082 65.5447C81.8905 65.0584 82.2705 64.479 82.5253 63.8411C82.7801 63.2032 82.9045 62.5199 82.891 61.8324H82.8358Z" fill="black"/>
<path d="M89.1598 64.8255H93.9497C93.9483 65.2628 94.0659 65.6922 94.2897 66.0668C94.5134 66.4415 94.8348 66.7472 95.2188 66.9506C95.9246 67.2745 96.6874 67.4531 97.4625 67.476C98.2376 67.499 99.0095 67.3657 99.7328 67.0841C100.119 66.903 100.445 66.6132 100.671 66.2496C100.765 66.1411 100.833 66.0121 100.869 65.8728C100.905 65.7334 100.909 65.5875 100.88 65.4464C100.852 65.3052 100.791 65.1727 100.703 65.0592C100.615 64.9457 100.502 64.8543 100.373 64.7921C99.5739 64.3875 98.7388 64.0597 97.8787 63.813C96.2674 63.3457 94.5677 63.0564 93.0336 62.5001C92.097 62.2498 91.2702 61.6913 90.6844 60.9132C90.0985 60.1351 89.7872 59.1821 89.7999 58.2054C89.7155 57.0901 89.9814 55.9763 90.5598 55.0218C91.1381 54.0673 91.9998 53.3205 93.0226 52.887C94.418 52.2859 95.9197 51.9761 97.4372 51.9761C98.9547 51.9761 100.456 52.2859 101.852 52.887C102.86 53.2676 103.714 53.9742 104.281 54.8962C104.848 55.8182 105.096 56.9036 104.986 57.9829C103.563 57.9829 102.139 57.9829 100.704 57.9829C100.583 57.9829 100.373 57.7381 100.34 57.5823C100.25 57.0598 99.979 56.5867 99.5743 56.2481C99.1697 55.9095 98.6584 55.7277 98.1325 55.7354C97.2649 55.6867 96.3947 55.739 95.5389 55.8911C95.2123 55.9371 94.9134 56.1013 94.6981 56.3531C94.4829 56.605 94.3659 56.9272 94.3691 57.2597C94.37 57.5664 94.4831 57.8619 94.6868 58.0898C94.8904 58.3176 95.1703 58.4618 95.4727 58.4947C96.9847 58.962 98.5298 59.3291 100.064 59.7519C100.858 59.9439 101.639 60.1854 102.404 60.4751C103.224 60.7174 103.956 61.1943 104.513 61.848C105.069 62.5017 105.425 63.3041 105.538 64.1579C105.71 65.1461 105.604 66.1631 105.231 67.0934C104.859 68.0237 104.235 68.83 103.43 69.4206C101.95 70.4476 100.194 70.9949 98.3974 70.9894C96.0712 71.2137 93.7328 70.7127 91.6982 69.5541C90.8941 69.067 90.2344 68.3713 89.7879 67.5395C89.3414 66.7078 89.1245 65.7705 89.1598 64.8255Z" fill="black"/>
<path d="M34.2307 46.5895H13.8351C13.6584 46.6119 13.4792 46.5778 13.3227 46.492C13.1663 46.4061 13.0405 46.2729 12.9633 46.1111C12.3232 44.9985 11.6389 43.8858 10.9105 42.6286L26.3617 33.2937L34.2307 46.5895Z" fill="black"/>
<path d="M46.2716 70.7556H41.6031V52.3083H46.2716V70.7556Z" fill="black"/>
<path d="M46.3047 50.8286H41.5811C41.5811 49.5268 41.5811 48.2696 41.5811 47.0012C41.6172 46.9152 41.6731 46.8391 41.7441 46.7791C41.8151 46.7192 41.8992 46.677 41.9895 46.6562C43.2807 46.6562 44.561 46.6562 45.8523 46.6562C45.9489 46.6807 46.0379 46.7291 46.1111 46.7971C46.1844 46.8652 46.2396 46.9506 46.2717 47.0457C46.3158 48.2918 46.3047 49.5157 46.3047 50.8286Z" fill="black"/>
<path d="M104.777 47.3016C104.777 48.0393 104.486 48.7468 103.968 49.2684C103.451 49.7901 102.749 50.0831 102.017 50.0831C101.286 50.0831 100.584 49.7901 100.066 49.2684C99.5489 48.7468 99.2582 48.0393 99.2582 47.3016C99.2582 46.5639 99.5489 45.8564 100.066 45.3347C100.584 44.8131 101.286 44.52 102.017 44.52C102.749 44.52 103.451 44.8131 103.968 45.3347C104.486 45.8564 104.777 46.5639 104.777 47.3016ZM102.006 44.9651C101.401 44.982 100.825 45.2328 100.398 45.6656C99.9706 46.0983 99.7246 46.68 99.7107 47.2904C99.7107 47.7508 99.8463 48.2009 100.1 48.5835C100.354 48.9661 100.715 49.2642 101.137 49.4399C101.559 49.6155 102.024 49.6609 102.471 49.5703C102.919 49.4797 103.33 49.2571 103.652 48.9308C103.974 48.6044 104.193 48.189 104.281 47.7372C104.369 47.2854 104.321 46.8175 104.145 46.3928C103.969 45.9681 103.672 45.6057 103.291 45.3515C102.91 45.0974 102.463 44.9629 102.006 44.9651Z" fill="black"/>
<path d="M102.426 47.4797C102.582 47.4346 102.718 47.3374 102.813 47.204C102.907 47.0706 102.953 46.9089 102.945 46.7453C102.945 46.4004 102.779 45.9888 102.018 45.9888H101.179V48.5812H101.642V47.5464H101.929L102.514 48.5812H103.033L102.426 47.4797ZM101.642 46.3671H101.973C102.426 46.3671 102.492 46.534 102.492 46.7231C102.492 46.9122 102.315 47.1236 101.973 47.1236H101.642V46.3671Z" fill="black"/>
</svg>
