<svg width="117" height="32" viewBox="0 0 117 32" fill="none" xmlns="http://www.w3.org/2000/svg">
<path d="M19.3127 5.11282H8.37093L21.6112 16.6454L18.0528 20.4403L5.30632 9.32884V18.6085H0V0H19.3127V5.11282Z" fill="#EB143E"/>
<path d="M73.6925 0H68.9424V18.4554H73.6925V0Z" fill="#01253D"/>
<path d="M44.5504 0V18.4554H39.7945V4.57693H28.376V18.4554H23.6259V0H44.5504Z" fill="#01253D"/>
<path d="M112.25 0H96.0755V18.4554H117V0H112.25ZM100.82 13.8784V4.5824H112.25V13.8784H100.82Z" fill="#01253D"/>
<path d="M80.9171 4.57693V13.8784H93.5955V18.4554H76.1613V0H93.5955V4.57693H80.9171Z" fill="#01253D"/>
<path d="M51.8657 4.57693V8.16411H66.3602V12.741H51.8657V18.4554H47.1156V0H66.3602V4.57693H51.8657Z" fill="#01253D"/>
<path d="M7.66151 27.0132C7.66151 27.2429 7.66151 27.4342 7.66151 27.5983C7.67874 28.0567 7.5983 28.5136 7.42516 28.9409C7.25203 29.3682 6.98986 29.7568 6.65484 30.0826C6.31982 30.4085 5.91905 30.6648 5.47725 30.8357C5.03546 31.0065 4.56202 31.0884 4.08614 31.0761C3.11681 31.0761 2.18719 30.7051 1.50178 30.0447C0.816365 29.3842 0.431305 28.4885 0.431305 27.5545C0.431305 26.6206 0.816365 25.7249 1.50178 25.0644C2.18719 24.404 3.11681 24.033 4.08614 24.033C5.56169 24.033 6.92374 24.7165 7.44018 26.0836L6.16326 26.5101C5.97662 26.1362 5.67917 25.8239 5.30848 25.6127C4.93779 25.4015 4.51046 25.3009 4.08046 25.3235C3.77946 25.3235 3.48146 25.3811 3.2038 25.4931C2.92614 25.605 2.67436 25.7691 2.46311 25.9757C2.25186 26.1823 2.08537 26.4273 1.97331 26.6965C1.86125 26.9657 1.80586 27.2536 1.81038 27.5436C1.80035 27.8396 1.8528 28.1344 1.96453 28.4102C2.07627 28.6861 2.24496 28.9372 2.4604 29.1483C2.67584 29.3595 2.93353 29.5263 3.21786 29.6387C3.50219 29.751 3.80724 29.8066 4.11451 29.802C4.6062 29.8371 5.09458 29.7006 5.4905 29.4175C5.88642 29.1344 6.16348 28.7236 6.27109 28.26H3.8194V26.9913L7.66151 27.0132Z" fill="#01253D"/>
<path d="M13.8077 30.9941L8.49576 30.9613L8.53548 24.2189L13.8305 24.2517V25.4875H9.95996V27.0077H13.5297V28.2217H9.95996V29.7473H13.8532L13.8077 30.9941Z" fill="#01253D"/>
<path d="M21.2764 31.0214H20.0846L16.2368 26.6468V30.9722H14.818L14.8577 24.2298H16.0495L19.8973 28.6974V24.2517H21.3161L21.2764 31.0214Z" fill="#01253D"/>
<path d="M27.729 31.0597L22.4114 31.0269L22.4568 24.29L27.7517 24.3173V25.5586H23.8813V27.0733H27.451V28.2927H23.8813V29.8239H27.7744L27.729 31.0597Z" fill="#01253D"/>
<path d="M33.1829 31.0925L30.9129 28.6044H30.1694V31.0761H28.7109L28.7506 24.3337H32.1046C33.6086 24.3337 34.6074 25.2032 34.5961 26.4773C34.6016 27.0083 34.3959 27.5213 34.0212 27.9108C33.6466 28.3002 33.1313 28.5367 32.5814 28.5716L34.9139 31.087L33.1829 31.0925ZM32.0876 27.3741C32.222 27.3944 32.3594 27.3864 32.4903 27.3506C32.6212 27.3149 32.7425 27.2523 32.8459 27.167C32.9492 27.0818 33.0322 26.976 33.0891 26.857C33.146 26.7379 33.1755 26.6084 33.1755 26.4773C33.1755 26.3462 33.146 26.2167 33.0891 26.0976C33.0322 25.9785 32.9492 25.8728 32.8459 25.7876C32.7425 25.7023 32.6212 25.6397 32.4903 25.604C32.3594 25.5682 32.222 25.5602 32.0876 25.5805H30.1524V27.3741H32.0876Z" fill="#01253D"/>
<path d="M40.8558 31.1308L40.2883 29.6927H37.1953L36.571 31.1253H35.0387L38.109 24.4048H39.4313L42.4222 31.1636L40.8558 31.1308ZM38.739 26.0399L37.7004 28.4404H39.7321L38.739 26.0399Z" fill="#01253D"/>
<path d="M47.8306 31.1745L42.7967 31.1417L42.8421 24.4322H44.2609L44.2269 29.9004H47.842L47.8306 31.1745Z" fill="#01253D"/>
<path d="M54.1301 25.7063L54.0961 31.2073H52.6602L52.6943 25.7008H50.3675V24.4322L56.4456 24.4704V25.7063H54.1301Z" fill="#01253D"/>
<path d="M61.5135 31.2511L59.2435 28.763H58.5V31.2402H57.0755L57.1209 24.4978H60.4693C61.9732 24.4978 62.9721 25.3673 62.9664 26.6414C62.9705 27.1729 62.7635 27.6859 62.3879 28.0752C62.0124 28.4645 61.4965 28.7008 60.946 28.7357L63.2785 31.2511H61.5135ZM60.4182 27.5327C61.0765 27.5327 61.5192 27.1772 61.5192 26.6414C61.5192 26.1055 61.0879 25.7446 60.4296 25.7391H58.5V27.5327H60.4182Z" fill="#01253D"/>
<path d="M69.1864 31.2948L68.5905 29.8512H65.5032L64.8789 31.2839H63.341L66.4113 24.5579H67.7393L70.7244 31.3167L69.1864 31.2948ZM67.0696 26.1984L66.031 28.599H68.0684L67.0696 26.1984Z" fill="#01253D"/>
<path d="M73.7549 24.5743C76.0591 24.5743 77.5857 25.9578 77.5743 27.9701C77.563 29.9824 76.0193 31.3331 73.7095 31.3167H71.133L71.1727 24.5743H73.7549ZM73.7209 30.0809C75.1681 30.0809 76.1385 29.2661 76.1442 27.9592C76.1499 26.6523 75.1964 25.8211 73.7436 25.8156H72.6085L72.5802 30.0809H73.7209Z" fill="#01253D"/>
<path d="M78.3802 31.3441L78.42 24.6017H79.8388L79.7991 31.3386L78.3802 31.3441Z" fill="#01253D"/>
<path d="M87.4208 31.3933H86.2347L82.3869 27.0187V31.3441H80.9681L81.0079 24.6017H82.1713L86.0191 29.0693V24.6236H87.4435L87.4208 31.3933Z" fill="#01253D"/>
<path d="M95.508 27.5053C95.508 27.7404 95.5364 27.9264 95.5364 28.0904C95.5543 28.5488 95.4747 29.0058 95.3022 29.4334C95.1298 29.8609 94.8683 30.2499 94.5338 30.5763C94.1993 30.9027 93.7989 31.1596 93.3574 31.3311C92.9159 31.5027 92.4426 31.5852 91.9667 31.5737C91.4867 31.5737 91.0114 31.4826 90.568 31.3056C90.1246 31.1287 89.7217 30.8693 89.3823 30.5423C89.0429 30.2152 88.7737 29.827 88.59 29.3998C88.4064 28.9725 88.3118 28.5146 88.3118 28.0521C88.3118 27.5897 88.4064 27.1317 88.59 26.7045C88.7737 26.2772 89.0429 25.889 89.3823 25.562C89.7217 25.235 90.1246 24.9756 90.568 24.7986C91.0114 24.6217 91.4867 24.5306 91.9667 24.5306C93.4365 24.5306 94.8043 25.2086 95.315 26.5812L94.0381 27.0077C93.8539 26.6327 93.5579 26.3191 93.188 26.1068C92.8181 25.8945 92.3909 25.7931 91.961 25.8156C91.66 25.8156 91.362 25.8732 91.0843 25.9852C90.8067 26.0972 90.5549 26.2612 90.3436 26.4678C90.1324 26.6744 89.9659 26.9194 89.8538 27.1886C89.7418 27.4578 89.6864 27.7457 89.6909 28.0357C89.6809 28.3317 89.7333 28.6265 89.845 28.9024C89.9568 29.1782 90.1255 29.4293 90.3409 29.6405C90.5564 29.8516 90.8141 30.0184 91.0984 30.1308C91.3827 30.2432 91.6878 30.2987 91.995 30.2941C92.4797 30.3171 92.9573 30.1744 93.3435 29.8913C93.7297 29.6082 93.9998 29.2028 94.1062 28.7466H91.6545V27.4834L95.508 27.5053Z" fill="#01253D"/>
<path d="M103.59 31.4863L98.5556 31.4589L98.5953 24.7166H100.02L99.9858 30.2231H103.595L103.59 31.4863Z" fill="#01253D"/>
<path d="M109.446 31.5409H104.412L104.458 24.7985H105.877L105.843 30.3051H109.458L109.446 31.5409Z" fill="#01253D"/>
<path d="M115.513 28.7357L116.887 29.0146C116.748 29.7911 116.319 30.4919 115.682 30.9854C115.044 31.4788 114.242 31.7308 113.425 31.694C112.455 31.6882 111.528 31.3117 110.847 30.6471C110.166 29.9826 109.786 29.0846 109.793 28.1506C109.799 27.2166 110.189 26.3232 110.879 25.6669C111.569 25.0106 112.501 24.6451 113.47 24.6509C114.267 24.6285 115.046 24.8787 115.669 25.3572C116.293 25.8357 116.72 26.5115 116.875 27.2648L115.496 27.6311C115.432 27.1529 115.185 26.7147 114.805 26.4016C114.424 26.0884 113.936 25.9225 113.436 25.936C112.84 25.9644 112.277 26.2127 111.865 26.6295C111.454 27.0464 111.224 27.5998 111.224 28.1752C111.224 28.7507 111.454 29.3041 111.865 29.7209C112.277 30.1377 112.84 30.3861 113.436 30.4145C113.937 30.4338 114.427 30.2725 114.811 29.9621C115.196 29.6517 115.446 29.2144 115.513 28.7357Z" fill="#01253D"/>
</svg>
