<svg width="58" height="56" viewBox="0 0 58 56" fill="none" xmlns="http://www.w3.org/2000/svg">
<g clip-path="url(#clip0_3620_3005)">
<path d="M57.5705 21.2441L57.2055 20.8869L53.7912 17.5458C52.8726 16.5286 51.7742 15.6815 50.5487 15.0453C47.9933 13.8475 45.395 12.5657 42.9041 11.347L39.2107 9.43478C39.1369 9.40621 39.0732 9.35721 39.0274 9.29376C38.9817 9.23031 38.9558 9.15518 38.953 9.07756C38.8856 8.06468 38.6686 7.06668 38.3087 6.1147C37.6266 4.18499 36.2939 2.53984 34.5294 1.44978C32.459 0.15664 29.9771 -0.351513 27.5505 0.0209044C26.0883 0.188609 24.6869 0.690646 23.4596 1.48643C22.2323 2.28221 21.2135 3.3494 20.4857 4.60175C19.695 5.93647 19.2318 7.43271 19.1329 8.97249C19.138 9.07883 19.1071 9.18386 19.045 9.27125C18.9829 9.35865 18.893 9.4235 18.7893 9.45578L6.57087 15.4445C6.24729 15.6111 5.95068 15.8236 5.69051 16.0749L3.54316 18.1762L0.558304 21.1811C0.385869 21.3318 0.254373 21.5221 0.175663 21.7348C0.0969532 21.9475 0.073513 22.1761 0.107379 22.3999C0.152937 22.6137 0.251053 22.8135 0.393229 22.9819C0.535405 23.1503 0.717372 23.2823 0.923383 23.3665L3.629 24.6693L5.38985 25.5308C5.47218 25.5508 5.54314 25.6017 5.58736 25.6725C5.63158 25.7433 5.64547 25.8283 5.62603 25.9091V43.8123C5.61121 44.0901 5.68351 44.3658 5.83317 44.6024C5.98284 44.839 6.20275 45.0252 6.46353 45.1361L13.5283 48.5822L18.8967 51.2089C22.0032 52.7218 25.1097 54.2418 28.2162 55.7687C28.4876 55.9112 28.7889 55.9903 29.0966 55.9999C29.3823 55.9973 29.6627 55.9251 29.9126 55.7897L50.3769 45.7665L51.7727 45.0941C52.0163 44.9845 52.2204 44.8055 52.3583 44.5806C52.4963 44.3556 52.5616 44.0951 52.5457 43.8333V36.962C52.5457 33.2637 52.5457 29.5443 52.5457 25.846C52.5327 25.7876 52.5433 25.7265 52.5753 25.6755C52.6074 25.6246 52.6583 25.5878 52.7175 25.5728L53.4261 25.2367L54.4569 24.7323L57.3558 23.3035C57.5577 23.2216 57.7346 23.0901 57.8692 22.9216C58.0038 22.7531 58.0916 22.5534 58.124 22.3419C58.1564 22.1304 58.1324 21.9143 58.0542 21.7146C57.976 21.5149 57.8464 21.3383 57.6779 21.2021L57.5705 21.2441ZM50.0548 32.9485V43.0558C50.0698 43.1444 50.0521 43.2353 50.0049 43.3123C49.9577 43.3893 49.884 43.4473 49.7971 43.476L34.7656 50.8306L30.2132 53.058V30.4479L33.5202 33.6839C33.7227 33.9594 34.0285 34.1451 34.3707 34.2002C34.7128 34.2553 35.0634 34.1755 35.3454 33.9781L47.5209 28.0104C47.8038 27.9143 48.0408 27.7201 48.1872 27.4646C48.3336 27.209 48.3792 26.9098 48.3154 26.6235C48.2774 26.4511 48.1996 26.2896 48.088 26.1512C47.9763 26.0128 47.8337 25.9012 47.6712 25.825C47.4933 25.7427 47.2989 25.7 47.1022 25.7C46.9054 25.7 46.7111 25.7427 46.5331 25.825L34.9374 31.4986C34.8086 31.4986 34.7871 31.4986 34.7227 31.4986L31.9956 28.8089L31.0292 27.8843L31.4802 27.6532L32.6183 27.0858L35.2595 25.804L50.7634 18.2183C50.9782 18.1132 51.0425 18.1132 51.1929 18.2183C52.1592 19.1849 53.1685 20.1515 54.1348 21.0971L54.6072 21.5594L54.8219 21.7064L54.371 21.9166L53.2114 22.5049L52.6531 22.7571C52.0733 23.0513 51.4935 23.3455 50.8923 23.6186C50.6279 23.7308 50.4054 23.9203 50.2555 24.1611C50.1055 24.4018 50.0354 24.6821 50.0548 24.9635V32.9485ZM34.5294 14.7721C33.7242 15.5891 32.7391 16.2155 31.6491 16.6036C30.5591 16.9917 29.393 17.1313 28.2395 17.0117C27.0861 16.8922 25.9757 16.5166 24.993 15.9137C24.0102 15.3107 23.1811 14.4963 22.5687 13.5323C22.4603 13.3547 22.3103 13.2049 22.1311 13.0953C21.9519 12.9857 21.7485 12.9194 21.5379 12.9019C21.3586 12.9 21.181 12.9366 21.0177 13.0092C20.8545 13.0818 20.7095 13.1887 20.5931 13.3222C20.4274 13.521 20.3369 13.7696 20.3369 14.0261C20.3369 14.2827 20.4274 14.5313 20.5931 14.7301C21.2919 15.8934 22.2452 16.8909 23.3847 17.6509C24.8377 18.6901 26.5585 19.3115 28.3531 19.4452C30.1476 19.5788 31.9446 19.2194 33.5416 18.4074C34.8384 17.8063 35.9806 16.9277 36.8838 15.8365C37.787 14.7454 38.4281 13.4696 38.7597 12.1035V11.8093L48.6161 16.6423H48.4872L47.8001 16.9785L44.3214 18.6805L29.2899 26.0772C29.2385 26.1089 29.1789 26.1258 29.1181 26.1258C29.0573 26.1258 28.9977 26.1089 28.9463 26.0772L11.2951 17.6299L9.46981 16.7473L11.9392 15.5286L20.5287 11.3259C20.8085 11.2184 21.0453 11.0253 21.204 10.7754C21.3626 10.5255 21.4345 10.2322 21.4091 9.93911C21.367 8.94269 21.536 7.9485 21.9056 7.01911C22.2751 6.08973 22.8372 5.24523 23.5564 4.53871C24.7874 3.2696 26.4729 2.51647 28.2591 2.4374C29.5971 2.29127 30.9504 2.50569 32.1728 3.05751C33.3952 3.60933 34.4403 4.47756 35.1951 5.56837C36.1063 6.96991 36.5333 8.62071 36.4135 10.2777C36.2936 11.9346 35.6332 13.5101 34.5294 14.7721ZM7.9452 29.7755V26.8336L22.676 34.0412C22.9531 34.2308 23.2953 34.3063 23.6288 34.2512C23.9622 34.1962 24.2602 34.0151 24.4584 33.747L27.7438 30.5319V52.932H27.6364L24.4798 51.398L8.15995 43.413C8.0804 43.3887 8.01258 43.337 7.96912 43.2674C7.92567 43.1978 7.90951 43.1151 7.92371 43.0348L7.9452 29.7755ZM26.799 28.1575L26.0474 28.8719C25.124 29.7545 24.2221 30.637 23.3203 31.5406C23.2129 31.5406 23.1699 31.5406 23.0411 31.5406L6.48502 23.4295L3.30691 21.8745L3.58608 21.6224L4.70268 20.5297L6.95744 18.4284C7.06481 18.3023 7.1077 18.3023 7.23654 18.4284L20.1207 24.7323L26.9493 28.0734H27.121L26.799 28.1575Z" fill="#EB143E"/>
<path d="M32.2103 6.21993L29.1611 9.20379L27.9586 10.4016L27.6364 10.7167L27.5076 10.5907L26.9278 10.0233L25.7897 8.90961C25.681 8.79233 25.5485 8.69861 25.4005 8.63447C25.2526 8.57034 25.0926 8.53719 24.9308 8.53719C24.769 8.53719 24.609 8.57034 24.4611 8.63447C24.3131 8.69861 24.1806 8.79233 24.0719 8.90961C23.949 9.01521 23.8495 9.14421 23.7793 9.28873C23.7092 9.43325 23.6699 9.59024 23.6639 9.75012C23.6602 9.91067 23.6908 10.0702 23.7536 10.2185C23.8165 10.3669 23.9102 10.5008 24.0289 10.6117C24.8878 11.4732 25.8112 12.3768 26.7775 13.3013C26.8895 13.4132 27.0231 13.502 27.1706 13.5627C27.3181 13.6233 27.4764 13.6546 27.6364 13.6546C27.7964 13.6546 27.9548 13.6233 28.1023 13.5627C28.2498 13.502 28.3834 13.4132 28.4954 13.3013L33.9282 7.96403C34.0524 7.85178 34.151 7.71515 34.2176 7.56307C34.2842 7.411 34.3173 7.24691 34.3147 7.08148C34.3164 6.92742 34.2846 6.77476 34.2217 6.63352C34.1588 6.49228 34.0661 6.36566 33.9496 6.26197C33.8387 6.14672 33.7055 6.05414 33.5578 5.98959C33.41 5.92503 33.2507 5.88977 33.0889 5.88586C32.9272 5.88196 32.7663 5.90945 32.6155 5.96679C32.4647 6.02413 32.3269 6.11018 32.2103 6.21993Z" fill="#EB143E"/>
</g>
<defs>
<clipPath id="clip0_3620_3005">
<rect width="58" height="56" fill="white"/>
</clipPath>
</defs>
</svg>
